<?xml version="1.0" encoding="UTF-8"?>
<svg id="_レイヤー_1" xmlns="http://www.w3.org/2000/svg" version="1.1" viewBox="0 0 700 500">
  <!-- Generator: Adobe Illustrator 29.0.1, SVG Export Plug-In . SVG Version: 2.1.0 Build 192)  -->
  <defs>
    <style>
      .st0 {
        fill: #f9f8f8;
      }
    </style>
  </defs>
  <path class="st0" d="M29.1,390.3c3.9-16,8.7-29.1,12.9-39.3-6.3,3.3-12.4,6.6-18.5,9.9-4.2,2.5-2.7,4.5-4.9,4.4-19.4-1.5-4.4-7.6.9-10.7,8-4.8,17.3-9.7,27.4-14.9,2-4.4,3.6-8,4.6-10.7l3.2-8.8c13.6-30,28.2-59.3,47.8-85.8,18.3-25.3,39.6-48.2,65.2-66,15.3-10.5,36.6-22.8,52.3-20.2,10,1.5,15.4,5.4,17.2,16,1.5,25.4-16.4,101.3-17.8,107.7l-.7,3.5c18-4.5,35.6-8,51.9-10.4,9.3-1.4,11.5,3.9,10.3,9.7-1.3,6.8-2.4,15.2-4.4,24.3,2.5-4,4.9-8.1,7.2-12.1,5.4-9.7,10.7-19.2,16-28.9,2-3.6,6.5-4.6,9.7-1.8,6.2,5.4,8,8.1,12.4,11.8,4,3.3,9.6,3.9,16.3,2.9,8.3-1.4,17-3.1,26.2-8.2.3,0,.8-.3,1.3-.4.2,0,.4.1.5,0,.2.3,0,.5,0,.7-1.4,1.8-3.1,3.1-5.1,4.1-4.7,2.7-16.4,7.7-22.7,8.7-7.8,1.3-16.8-.9-25.1-6-2.7-1.7-5.2-3.6-7.7-5.5-1.6-1.4-3.4.8-4.5,2.7-1.6,2.3-10.7,18.2-14.6,24.8-3.2,5.3-9.9,18.1-13,22.5-1,1.2-1.5,2.1-2.9,2.4-2.1.4-8-2.2-8.5-5.1-.7-3.7,3.4-21.6,6.2-36.4.8-4,0-5.5-4.1-4.8-15.6,2.9-31.2,6.4-46.5,10.4-6.1,30.6-8.1,41.7-11.7,57.7-4.8,21.2-10.3,29-9.1,22.3,4.3-23.9,9-51.3,13.3-77.9-54.3,15-106.1,36.6-152.4,60.1-10.4,25.4-19.3,52-19.7,65.3-.7,2.6,1.4,6.8-1.9,7.2-15.1,2.6-7.9-17.7-7-25.4ZM211.1,277.4c9.1-55.7,16.4-107,14.6-115.5-1.2-5.8-3.7-10.2-9.6-9.3-14.3,3.3-26.3,11.2-38.1,19.1-47.5,33.4-85,91.4-106.2,139.4l-4.1,8c-1.9,4.4-3.9,8.8-5.7,13.5,42.7-20.4,97.4-41.4,149-55.1Z"/>
  <path class="st0" d="M411.8,286.6c8.9-26.3,21.1-48.6,22.9-65.4.2-1.7-.4-2.4-1.9-2.2-18.5,3.4-47,22.7-54,37.6-1.7,3.7-1.4,8-1.1,11.1.5,7.4,0,14.4-3.1,21.4-2.6,5.7-6.4,8.7-10.5,9.5-1,.2-1.9.4-3,.2-2.7-.2-5.5-1.5-7.9-3.6-1.5-1.6-2.5-3.7-3-6.2-.3-1.5-.2-3-.1-4.3.5-9.3,9.6-28.2,18.3-29.9,1.3-.2,2.5-.1,3.8.5,9.3-19.8,49.4-38.9,59.7-40.8,1.8-.3,3.3-.3,4.7,0,4.3.6,6.3,3,7,6.9,1.9,10.4-2.3,21.4-9,38.9,13.5-18.9,22.2-32.7,33.7-43.8,1.3-1.2,3-1.9,4.8-2.2,4.2-.8,9.1,1,9.9,4.6,1.7,4.6-6,27.6-4.8,34.2.2,1.3.7,2,1.8,1.8,5.7-1,12.2-8.3,18.2-13.4,3.7-3.4,9.3-9.6,11.9-10.1,1.6-.3,3.1.3,5.4,1,4.8,1.5,6.1,6.6,7.4,13.9l1,5.5c.6,3.4,2.8,6.4,8.2,5.5,13-2.4,30-20.9,39.2-31.2,1.1-1.2,2.3-2.8,3.6-4.2.3-.2.4-.4.8-.3.5.2.1.6.1.8-.5,2.1-1.5,4-2.5,5.7-2.3,3.9-5.5,7.5-8.7,10.8-8.3,7.7-18.4,18.6-32,21.1-13,2.4-18.5-4-20.1-12.6-.6-3.4-.7-5.4-1-7-.3-1.5-.8-2.7-2-2.5-.5,0-.9.3-1.7,1-7.2,6.5-13.8,13.6-22.5,19.9-1.8,1.2-3.7,2-5.4,2.3-2.1.4-4.1.3-6.1-.2-4.6-.5-6.8-3.1-7.5-7-1.3-7.1,2.5-18.2,4.1-26.9.8-4.7.6-7-4.2-1.7-9.4,10.6-17,22.2-24.3,32.8-5.2,7.2-14.9,27.4-17.3,29.2-1.1,1.2-2.8,1.9-4.5,2.2-4.4.8-9.2-.8-8.6-2.9ZM372.3,264.2c-7.6,7.1-12.2,16.8-12.5,24.1-.1,1.2,0,7.7,3.2,7.1,7.3-1.3,11.9-19.4,9.4-31.2Z"/>
  <path class="st0" d="M566.3,256.9c-2.9-1.1-3.8-4.2-4.3-6.8-.6-3.2,0-6.5.7-9.7,1.6-5.8,4.3-11.4,7.9-16.2,5.9-7.8,16.8-17.9,27.1-19.6,4.5-.8,9.8-.6,13.3,1.1-1-2.7.3-3.6,2.1-3.9,2.1-.2,4.2.2,6.2,1,1.3.6,2,1.6,2.4,2.9,1.8,7.2,6.9,17.7,11.4,22.6,3.2,3.8,7.5,5,12.6,4,9.7-1.8,19.9-10.4,26-17,1.1-1.2,2.3-2.8,3.6-4.2.3-.2.4-.4.8-.3.5.2.1.6.1.8-.5,2.1-1.5,4-2.5,5.7-4,6.6-16,16.7-25.9,18.5-7.3,1.3-14.1,0-21.4-4.3-5.5-3.2-10.2-11.9-13.7-18.8-9.3,17-15.8,26.4-24.1,36.6-2.1,2.4-4.5,4.5-7.1,6.3-1.9,1.4-3.8,2.2-5.7,2.6-3.1.6-6.4,0-9.6-1.4ZM596.7,229.7c4.6-5.9,7-11,11.2-17.6-1.6-1.4-3.5-2.4-6.3-1.7-9.5,2.1-22.7,18.8-27,32.1-1.3,4.1-1.4,7.6-1.2,9.1.3,1.5,1.8.8,2.9.1,8.9-5.7,15.3-15.4,20.4-22Z"/>
</svg>