<?xml version="1.0" encoding="UTF-8"?>
<svg id="_レイヤー_1" data-name="レイヤー_1" xmlns="http://www.w3.org/2000/svg" version="1.1" viewBox="0 0 520 740">
  <!-- Generator: Adobe Illustrator 29.0.1, SVG Export Plug-In . SVG Version: 2.1.0 Build 192)  -->
  <path d="M214.7,182c.2-.4-.4-2,.1-2.8l4.2-1.1,3.5,5.2c-.8,3.9-4.8,4.1-6.3,7.6-3.9,8.8-5.5,24.4-6.1,34.1,7.3,9.7,16.9,17.2,26.1,25,.7-5,.8-10.5.5-15.5-1.2-22.3-5.5-50.4-9.4-72.6-1.7-9.6-4.6-28.7-7.9-37.1s-30.6-34.4-37.2-40.3c-16.8-15.1-40.7-10.7-58.2-24.4l-3.8,1.8-4.6-6.4c4-1.4,2.8-5,4-8.5h3s0,2.3,0,2.3c2.3,2.2,4.6.1,5.5-2.3,3.3,2.6.3,6.3.4,9.5.3,6.9,14.9,8.6,20.1,10.5-2.6-10.5-10.1-22.5-22-23,.9-5.8,1-14.6,9-9.4s-1,6.7.5,9.4c2.8,5.4,10.1,2.7,8.5-4l-4.9-2c2.3.2,3.7-3,4.9-3.5,1.8-.7,4.1,2.1,4.1-1-.1-7.6-2.7-4.2-7-7-8.8-5.7-.8-18.2,8-10.8-1.6,8.4.9,15.4.5,23.4l13.5,8.9c.8-7.4-5.2-12.7-4-20l-2.5,2c-6.1-5.3-4.6-8.9,3.4-6.9.5.5-1.1,12.1,2,9l1-5,2,1c-.3-7.3-4.3-11.6-1-19,2.4-.4,1.6.3,2.4,1.9,6.7-3.9,12.8,6.1,6.6,10.6-1.6,1.2-4.6,1.3-5.5,2.5-1.5,2-.4,5.2-.8,7.2s-1.7,3-1.8,5.3c-.2,3.7,5.7,25.9,7.8,29.2s0,1.8,2.2,1.3c3-10.9,7.6-29.4-3.9-36.2-.1-2.4,1.2-5.2,3.7-3.6s1.2,4.1,3.6,3.8,2.7-7.4,2.6-10c10.1,4.3-5.4,16.5-.5,25,1.3-.9,1.9-2,2.6-3.4,1.7-3.6,5.6-17.3,4.5-20.6s-10.8-10.5-1.6-12.9c-1.3,3.3-.4,8.6,4,9l-1-10c2.8,0,5.7-.6,7.6,2,1.1,2.1-3.4,4.6-4.2,8s.4,4.7,0,6.8c-2.9,13.1-14.9,37.2-12.1,49.5s9.5,12.6,12.3,15.7c7.9,8.7,17.2,17.2,26,25,1.7-7.2-1.7-14.3-2.5-21.5-1.3-11.5-2.3-22.8-3.7-34.3s.8-3.1.5-4.5c-.6-3.8-5.4-3.9-5.8-7.3-1.3-9,11.1-9.9,12.1-2.9s-3,9.5-3.1,14,.7,12.9,1.1,18c.7,10.2,2.1,23.3,5,33.1s-.6,1.7,2,1.5c3.5-11.5,11.1-22.6,14.5-34,.8-2.7,2.6-9,2.6-11.5s-5.1-16.1-7.2-18.9-9.4-2.6-9-9.1c.6-9.2,15.4-5.7,14.1,1.9s-2.4,2.9-1.9,4.8l9.4,18.7c4.9-5,9.2-14.4,8.4-21.4s-4-9-1.9-13.6c1.8.1.7,3.1,1.5,5,3.2,7.3,9.4-1.6,5.1-5.1s-3.7-.2-3.6-1.9l6.5,2,1.5-2c4.8,6.7-2.7,10.2-4.7,16.8s-1.8,8.5-1.3,9.2c.9-.3,2.2-.9,2.9-1.6,2-1.7,11.7-18.8,12.4-21.6,1.8-7.2-1.4-8.6-1.4-13.4,0-8.1,14.3-6,11.4,2.3s-3.9,2.5-5.2,4.9-1.2,5.2-2.4,7.6l-11.7,19.8c4.9-3.4,14.1-9.6,16.5-15.1,1.3-3-1.3-5.8-.4-8.8,2.3-.4,4.6-2.5,6.6-3,8-1.6,13.8,11,1.3,13.4-1.7.3-3.6-1-5-.1s-9.4,10.7-12,13.1c-6.3,5.7-19.7,12.7-24,18s-19.8,42.2-21.5,49.5c-3.5,14.9,4.2,37.9,6.4,53.6s3.7,40.4,7.1,60.4c1.6.3,2.1-.5,3-1.5,2.2-2.4,10.3-26.5,12.8-32.2,3.6-8.1,7.8-16.4,11.7-24.3,2.4-5,7-9.8,7.5-15.5.6-6.6-6.2-32.6-10.6-37.4-4-4.4-13.3-7.8-12.9-15.1l12.5,12c1.9-4.5-11.1-24.9-10-26,3.3-3.2,5.6,7.3,6.1,8.4,2.4,4.9,5.7,9.8,8.4,14.6,1-5.1-2.1-10.4-1.5-15.5.2-1.4.6-2.9,2-1.5l2,20,7.8-14.7-.9-5.2,6-1c.5,2.5-2.8,3.4-3.4,5s.5,2.5.2,3.3c-4.1,9.5-8.9,15.7-7.5,27,.3,2.1,5.1,20.8,6.2,20.7,3.8-6.7,8.1-14.8,11-22,1.6-4.1,6.9-18.3,7-21.9.2-5.5-11.2-11.5-9.5-19.1l-5,2c-.8-2.4,5-5.7,6-5,.3,8.1,3.4,10.9,9,16-.4-5.6,0-14-1.2-19.3s-12.2-8.3,2.5-16.6l7.5,6.5-6.4,9.8.6,8.5,4-2.5c-4.3,4.9-4.6,7.9-4,14.5,3-1.2,9.3-11.1,9-13.5s-3.1.1-2.1-2.5l7,2.5c-4.1,1.9-4.7,6.9-7,10.5,5.7.9,7.7-5.7,12-8-.8,10.2-15.9,10.4-19.8,19.7l-16.2,41.3c.9,1.1,22.5-14.4,24.5-16,6-5,9.1-9.7,8.5-18l3.9,2.5-2.9,8.5c4.9.3,6.3-2.2,9-5.5l-2-3.5,5-2c.9,4.3-2.2,5.9-3.9,8.7s0,3.1-1,3.8c-1.4,1-4.1,1.1-6,2.1-10,5.8-21.6,13.6-29.1,22.4,2.4.2,4.7,0,7.1-.4,3.9-.7,20.6-5.7,23.7-7.3,3.2-1.8,8.7-9.3,8.3-13.2l1,3c7.3-1.5,12-8.7,16.6-13.9,2.4-.2,3.2,2.1,4.4,2.9-1.6-1.1-4.2-.5-5.5,1l-15.5,17c9.2-.8,12.8-11.4,22-12.5l1-2c0-.7-1.5-3.2-2-3.5,2.4,1.8,5.4,1.2,3.8,6.8l-15.8,9.2c7.3,1.5,14.9-2,21.5-5,5.3,1.8,4.7,7.2-1.5,5,2.8-5.3-5.9,1.4-6.8,1.7-4.8,1.7-14.4,1.8-18.3,3.7s-1.3,1.2-1,1.5c6.9,1.2,15,2.1,11,11-5.4-5.9-13.4-9.4-21.5-9.1s-11.6,3.6-17.3,4.8c-11.4,2.4-19-1.5-28.3,7.7-5.1,5.1-11.8,19.7-15.1,26.9-10.1,21.6-21.3,46.3-19.8,70.2l4.1,48.9c7.1,3.9,15.6,5.8,21.9,11.6,2.2-3-9.4-21.9-10.7-25.7s-1.1-3.8,1.2-3.2c3.3,3.6,5.6,8.8,7.7,13.3,3,6.5,6.5,20,10,25s1.2,2,2.9,1.6c5.9-18.4,15.9-35.8,18-55.4-.3-2.1-4.5-7-6-9.1-4.3-5.6-14-17.4-18.9-22.1-4.5-4.3-12.3-4.1-9.6-10.5.8-1.3,2.9-.6,3.5-.9-.5,3.8.4,7.4,5,7v-5.8c-.1,0-5-1.2-5-1.2,4.5-2.2,4.7-3,9,1v-6c1.9,1.1,3.3.3,3-2-1-.9-8.5,4.4-7,.5,3.5-9.1,11.8,1.3,8.1,6.1s-4.9.6-4,7.8,17.2,21.5,22.9,27.6c-4.4-14.6-9.8-30.1-8.2-45.4l-5.8-7.2c-.6-5.8,11.8-9.1,15-3.8.7,2.4-4.7,7.8-5.7,10.1-4.6,10.2,6.3,33.6,5.8,45.3l6-26.5-7-13.5,5.6-3-.6-7h5c.8,3.1-1.6,4.6-2.5,7s.3,2.2,0,3c-1.6,3.4-7.1,4.9,2.5,7.9l3-4.6c1-3.5-3-3.1-3.9-5.3l4-.6c5.3,6.1-1.2,10.6-3,16.1-2.4,7.7-3.6,18.3-5,26.5,8.3-6.7,16.5-16.6,19.5-27,2.4-8.7-2.2-9.1-3.4-16.9l6-1-3,1,1.1,4.9h2.9c0,0,0-3.9,0-3.9,4.2,1.8.6,5-1,7.5l2,.5c2.5,4.7-7.8,15.7-8,21,3.8-3.8,16.4-11.8,18.5-16s.6-2.6.5-4l-9.1-1.6c-1-7.1,14.6-15.3,12.1-3.4,3.8,0,7.9,1.1,9.8,4.7-1,7.2-7.2,5.3-11.6,7.1s-27.9,24.7-32.3,29.7-9.6,9.5-5.3,11.4c9.5,3,20.5-15.3,26.8-19.9,2.2-.6,1.8,1.9,1.3,3.3-.8,2.1-8.1,7.1-6.8,8.7,4.6-.6,15.4-7,15,1-15.1.5-27.8,7.5-40,15.7l-15,44.3c1.1,1,17-7.2,18.5-9,2.2-2.5,1-4.8,2.2-7.8,3-7.6,14.1-4.7,11.9,3.8-1,3.7-7.4,3.3-7.6,6.9l-2.5-2-25,16c-6,17.5-14.9,36.5-19.8,54.2-1.2,4.3-3.7,13-2.5,17.1s5.7,7.3,7.2,9.8c6.7,11.2,8.3,23.6,12.1,35.9,8.9-16.1,11.8-35.3,17-53,2.4-8.1,13.5-37,13.5-42.5v-16.5h1v15h1c1.1-4.1,4.8-6.1,6.8-9.7,4.2-7.7,7.4-16.8,12-25,6.8-12,23.5-33.6,25.7-46.3s0-9.7.5-14.5c1.1-11,4.5-27.5,2.9-37.9-1.3-8.7-10.4-19.4-14.8-27.1,8.6-9.4,5.6,15.3,13.9,16.5l3-28.5c0-2.6-2.9-2.7-4-4.3-6.3-8.3,5-17.1,11-8.8,6,8.3-4.2,8.9-5,13-.8,4.1.9,8.5.8,12-.2,8.8-2.2,17.6-1.8,26.5,7.2-4.1,10.8-20.1,16.7-24.1s9.6,5.2,6.3,9.6-8.5,4.7-11.1,6.9-7.5,7.6-9,11c-3.3,7.1-7,35.6-6.9,43.9,0,.9.6,5.4,2.4,4.6,5.1-4.7,8.2-11,12.5-16.5,10-12.6,32.8-39.2,35.5-54.5,1.3-7.1-1-11.3-1.1-16.6s3.3-9.9,2.6-13.9-8-10.7-7-15.6l2,1c.9-3.6,2.5-6.6,2.1-10.5s-2.9-3.6-5.1-6c-6.7-7.4,8.6-16.4,11.4-5.3s-3.2,5.6-3.4,9.3c-.3,5.2,3.6,14.6,3.1,20.5,4-2,3.4-12.9,9.4-10.9s-1.8,7.8-2.7,9.2c-5.8,8-7,17.3-8.1,26.2l1,9.5c4.1-5.5,9.7-9.8,13.9-15.1,12.3-15.5,27.1-35,24.6-55.4-.8-6.7-10-14.6,1.3-20.4,10.3,7,3.5,11.4,1.9,18.6-.4,1.7-1,8-1,9.8.1,11.2,6,1.5,9.2-2.6,10.9-14,24.3-29.7,33.4-44.6s6.4-17.6,16.5-21.5c10.8-4.2,5.3,9.4,2.1,14.1-5.1,7.7-14.3,12.1-20.8,18.2-3.7,3.5-25.1,28.3-25.6,31.4s0,1.6,1.5,1.5c6.2-.3,15.4-9.4,21.2-12.8s16.2-11.1,18.2-3.5c2.3,8.9-18,11.5-22.7,13-35.5,11.2-50.8,49.7-72.2,76.8-.7,2.4,4,1.6,5.5,1.5,5.4-.3,24.1-3,28.2-4.8s9.4-7.4,10.8-11.2c2-5.4,1.5-17,11.4-9.3.2.9-.9,6.2-1.4,7.3-2.3,4.9-12.2,7.4-13.4,13,1.3,1.1,16.5-4.3,18.7-5.8,4.3-3,12.7-17.6,17.5-3.9,3.3,9.4-8.1,11.4-14.5,6.9-3.7,3.2-12.4,3-15.7,5.2s-.4,1.5.7,2.4c2.6,2,6.2,2.4,9.4,2.1-2.3,13.1-10.5,1.8-18-.5-7.1-2.2-13-1.3-20.2-.3-4.2.6-18.3,3.2-21.5,4.5-4.8,2-15.4,17.1-19.1,21.9-4.7,6.3-22.3,29.8-23.2,35.8s-.3,1.4,1,1c15.8-5,43.5-10.7,51.9-26.2,1.6-3-.7-5.5,1.3-9.6,4.9-10.1,16.3-1.2,7.8,7.8-3.4,3.6-12.5,8.4-15.1,11.9-.9,1.2-1.1,2-.9,3.6,12.2,1.8,20.8-6,30.5-12,3.6.5,5.8,3.4,5.5,7-4.4,0-12.8-.4-14,5h28.3c2.1-2.7,5.5-7.8,9.3-8,7-.4,11.5,8.7,5,13-6.9,4.6-9-1.6-14-2.1s-13.3,3.1-17,3.1c-3.6,0-11.3-3.9-16-4.1s-15.9,2.2-14.4,4c6.2,2.5,15.8,7.3,20.3,12.2s2.2,1.3,1.7,3.8c-10.3-1.9-21.5-16.7-31.5-17.1s-39,10.7-44.2,13.9c-8.9,5.5-24.9,30.7-30.5,40.5-21.4,37.6-40.7,89-48.4,131.6-.4,2-.7,4-.4,6.1,1.1,1.5,16.3-15.6,17.5-17,18.2-21.7,16.9-33.3,27-57,4.1-9.6,13.3-15.2,12.6-26.5s-.2-3.7-2.1-3c-2.8,4.9,2.8,14.6-4.8,16.3s-12.6-11.1-4.2-15.3c2.8-1.2,5.3,2,5,4.5-8.4-6.2-10.5,8.7-1,8,3.7-8.2-.9-14.1,7.5-20,4-2.8,7.4-2.4,11,1,6.8,6.3-5.1,11.6-9,16-6.5,7.4-10.7,20.8-15.2,29.8l-9.8,30.2,5.4-1.1c0-2.2.3-3.2,1.5-5,6.1-9.1,23.4-17.3,29-26s10.3-19.8,12.1-25.9-.2-8.2,3-11.1l2.5,2,.5-3h2.9c4.2,1.1-4.6,10.7-5.9,13-2.8,5.1-7.1,12.3-7,18,3.5-2.7,6.8-4.8,10-8s2.8-4.5,8.4-7.6c14.9-8.2,32.1-17,41.6-31.4,2.9,3.9,6.6-.9,11.1-1.1,7.2-.2,6.6,7.1,2,10.1s-5.1,1.2-7.5,2.5-3.8,4.4-8.1,5.9-11.5.3-13,1-3.8,4.3-5.5,5.5c-6.8,5-14.9,7.1-21.4,11.6-4.2,2.8-8.3,8.3-13.1,10.9,12.4-.2,22.7-9.7,31.5-17.5,1.9,2.5-7.4,7.3-5.5,9,3.6-1.3,6.1-.1,9.5,0s3.3-2.1,5.5,1.9c-4.4.3-9.6,3.6-13.6,4s-6.1-1.2-8.6-.8c-5.1.8-23.9,10.1-28.7,13.4-11,7.6-21.8,18.8-29.1,29.9,3.7.2,8.4-1.1,12-2,10.3-2.6,21.7-5.9,29.5-13.5,4.5-4.4,6.4-11.3,12-15,7.7,4-7.7,9.4-8.5,14.5-.2.7.8.6,1.5.5,1.9-.3,21.8-8.9,23.8-10.2,3.9-2.5,12.7-18.4,17.9-5.6s-9.1,8-14.7,8.8-16,5.3-22.5,9.5l8,1.5c-5.1-.3-9.3-.2-14,2,2.5,4.6,11,7.4,15.8,7.8s5-.8,7.7-.9c14.9-.5,16.5,14.8,2.1,12-4.5-.8-7.4-6.6-11.5-8.5s-21-6-26.5-5.5-12.3,4-17.7,5.4c-12,3.1-23.3,3.9-33.8,12.2-5,4-25.3,24.9-29.1,29.9s-2.8,4.8-3.9,7.1c-10.2,21.6-10.4,46.2-19.2,68.3-1.8.2-1-3.3-.9-4.4,3-26.7,14.3-54,20-80.1l-8.1-29-11-22.5c-3.2,16.1-2.1,33.1-2.1,49.5,0,28.1,2.1,57.8,0,86s-1.4,7-2,10.5c8.3-10.2,16.8-19.9,20.7-32.8,3.9-12.9,2.5-24.2,11.8-35.2,1.6-1.9,8.9-10,9.5-4-3.2,0-6.2,4.1-7.8,6.7-4.7,7.3-8.6,22.9-9.4,31.6-.1,1.3-1.9,2,.8,1.8,4.6-5.8,11.5-12.7,14.4-19.6,2.5-6.1,1.4-16.3,4.1-19.9,2-2.8,15.3-13.8,18.7-16.3,4.9-3.5,21.3-13.9,26.4-15.6,3.2-1.1,7.3-1.5,6.7,2.8s-2.5,3.7-3.3,5.6c-6.3,16.5-8.3,40.5-19.5,53.5s-7,5.8-10,9-3.8,6-6.4,8.6c-10.1,9.8-24.6,7.3-36.8,10.2-4.3,1-9.8,9.1-12.1,12.9-10.5,17.4-9.5,41.5-13.6,61.3,10.2,28.8,26.5,57.2,34.2,86.8.3,1.3,3.7,12.1-.3,10.3l-1.7-2.3c-9.6-28.4-19.5-57.1-33.2-83.8-.5-.9-.5-2.4-2-2.5-5.4,29.5-8.6,59.7-14.3,89.2-.4,2.1-1.4,12.4-4.2,11.8-2-1.3-1.4-2.3-1.3-4.2.5-7.2,3.5-16.9,4.6-24.4,2-12.8,3.3-25.8,5.4-38.6,1.4-8.8,9.3-39.7,7.2-45.8s-10.5-19-12-20.9-2.1-2.5-3.5-3.5c-3.5-2.5-32.8-13.7-36.2-13.4-2.4.2-10.9,12.9-15.4,15.6s-16.7,6-18.2.5,10.3-9.8,14.2-11.5,7.1-.9,8.7-3.8c-15.4-2.6-33.2,1.1-46.5-9l-.3-3.3c1.1-3.9,12.7-3,16.3-2.7s9.3,1.6,13.3,2.7c6.8,1.9,11.7,5.5,18.2,7.3-5.7-10.3-20.8-13.9-21-27,7.3-.9,13.1,2.4,18,7.5,4.4,4.6,9.2,15.8,12.6,18.4,7,5.5,24.7,7.3,32.9,12.1,1-.1.5-1.5.3-2.3-3.8-10.3-31.4-49.8-39.4-59.7-8-9.9-10.8-10.3-23.2-12.8s-12.7-2.6-17.7-2.3c-11.1.7-16.8,11.3-27.5,13.6-18,3.7-21.3-5.5-2.8-11.8,3.5-1.2,8.7-.9,10.8-3.7-6.9-.4-14.7-2.3-20.7-5.8s-8.4-4.9-5.7-9.3c8.9-2.8,16.1,0,23.7,4.3,5.2,3,9.7,8.6,15.7,8.8,1.8-1.6-10-10.4-11-11.4-2.1-2.2-11.2-13.5-5.3-15.4,7.9-.5,14.4,5.1,18.2,11.6s4.4,13.5,9.2,15.8c2.4,1.2,20.7,3.9,23.4,3.6s1.8.5,1.5-1.5l-32-46.8c-4.7-4.7-28.9-11-35.5-10.8-9.4.3-15.5,9.4-30,8-3.5-.3-21.4-4.7-18.1-10,11.6-5.1,25.2-2.3,37.5-2-3.3-4-23.9-11.8-22.8-17.3,2.2-4.7,15.9-.8,19.2,1.5,5.1,3.5,8.6,12.3,14.6,15.4s24,6.8,27.5,6.5c1.4-.1,1.8.4,1.4-1.4-1.4-6.2-18.7-30.2-23.5-36.5-6.7-8.8-20.7-27.4-31.4-29.6-4.2-.9-8.2,0-12.3-.7s-24.3-8.5-23.8-14.2l1.7-2.4c9.3-1.1,18,.7,25.9,5.8s7.8,8.1,13.5,10c3.6-4.8-15.2-19.6-16.8-25.7s-1.1-20.9,5.7-17.8,8.5,10.8,9.5,13.6c2.2,6.1,1.6,12.3,2.8,18.2,2.4,12.5,16.5,24.6,24.2,34.8s14.8,21.3,22.1,31.9c1.5-1,1.4-1.9,1.5-3.4.5-4.5-.4-15.2-1.5-19.6-2.1-7.9-12.2-15.8-16.4-22.6-6.4-10.4,6-14.6,11.4-2.4s1.3,10.6,4.5,14c.3-8.2,1.3-19.1,5-26.6,6.9-14.1,10.7,10.8,10.1,17.1-1,9.5-8.9,15.7-10,21s.7,22.4,1.4,26.5c1,6.1,5,13.5,8.1,18.9,8,13.5,18.5,26.8,26.9,40.1.4-9,5.2-23.9,3.3-32.3s-17.5-18.7-14.7-29.1c3.6-4.2,8.3-.6,10.9,2.9,3.8,5.1,4.1,11.8,6.5,17.5,3.8-5.8,3.6-26.1,8-30,7.5-6.7,10.9,14.5,10.3,19.2-1,7.4-11.2,16.6-16.6,21.4-.9,15.2-5.9,30.6,2,44.7,6.7,11.8,20.6,32.3,29,43s2.7,3.2,4.3,4.7c1.5-7.7.4-15.6.5-23.5s1.2-4.6,1-6.9c-.6-6.2-11.5-20.4-13.3-28.8s-2.7-16.5,4.6-14.7,14.2,24.5,11.7,29.9l5-2.5,5-6.5c.8,7-9.1,16.9-9.9,21.5-1.5,8.1.4,37.7,3.8,45.1s4.2,6.2,5.7,9.3c4.1,8.2,8.4,16.3,11.5,25,2.4.3,1.6,0,2.1-1.4,1.4-4.1,4.4-17.9,4.8-22.2s-1-7.2-.8-9.8,2.4-5.2,2.9-8.1c2.7-16.9,1.2-33.8,1.5-50.7.4-26.2,1-52-.4-78.1-.5-9.4.7-16.8-2.9-26.1-3.7-9.4-22.4-30.3-32.5-31.5-20.6-2.5-33.4,2.7-51-13-4.6-4-22-21.4-7.5-22-5,9.6,12.6,23,20,26.5,11.2,5.4,24.8,3,37,4.5,1.6-1.1-26.8-23.7-28-26.5l.5-1.5,27.5,20c-2.8-11.3-8.3-28.3-17.9-35.5-16.1-12.1-45.7-34.6-65.6-37.4s-1.7-.2-1.5.5c4,6.6,6.8,13.8,10.5,20.5s9,12.8,10.5,16.5.2,1.7-.5,1.5c-5.2-2.9-8.2-7.8-11.3-12.7s-14.6-26.3-14.8-28.8.5-1.7.7-2.4c2.4-1.5,24.3,7.3,28.3,9.1,14.3,6.4,20.8,12.4,32.7,21.3,11.4,8.5,18.3,9.7,25.1,23.9s6.2,24,10.4,30.6c3.7,5.9,15.1,13.6,20.5,19.5s4.9,6.5,7.5,9.5c.8-2.5-.3-6.5-1-9-3.3-11-16.1-34.9-22-46-17.6-33.5-47.3-75.4-76.5-99.5-6.5-5.4-8.1-5.5-16.6-5.5s-32.9,2-41.9,10.1-3.5,5.1-6.1,7l-.3,1.3c11.8,11.3-9.3,18.6-11,8s14-14.1,16.8-19.3c-8.6,2.4-15.6,9.8-25,9v1c.7,0,1.8-.2,2,.7,1.4,5-4.1,11.6-9.3,9.1s-1-7.6-3.8-12.8l11.1.5,30.9-14.4-4.5-1,.5,2c-8.7-2.7-17.2.5-26,0v-4h18.5l1-2-7.3-5.9c-5.1,1.1-10.3,2.1-14.7,4.8l-9.1-6c-.2-7.1,3.7-5.8,7.5-7.5s3.8-5.4,7.5-5.4c5.9,0,5.2,6.9,8,10s13.2,8,16.7,9.3c13.9,5,26.4,2.3,40.8,1.7.3-1.6-.2-2.3-.9-3.5-3.1-4.8-18.3-16.3-23.6-21.4-8.1-7.9-15-17-23.7-24.3l-38.8-5.4c-6.8,4.2-12.8,11.3-21,12.6,7.7,18.3-16.7,18.1-12,0-5.3,2.1-14.1-.3-9.3-6.7s0-1.8,2.3-1.2c-2.8,6.2-.1,7.7,6,7l-2-13c-2.5-1-3.3,3.8-4.5,3.9l-2.5-.9.5-2,2.5,1-2-9-3,1c-.7-.8,5-11,11.9-4.4s2.1,5.1,3.3,6.2c3.1,3,17.1.5,21.7.2-1.1-1.5-4.4-3.6-6.1-4.4-4.2-2.1-11.5-2.7-12.9-7.6l-2,2,.5-5,3.5-1-1,5,15,4c-2.4-7.8-7.9-5.8-12.7-10.5,0-5.8,8.4-13.8,12.6-8s-1.9,9.1-1.4,10.4c1.3,3.6,10.2,13.7,13.6,15.4s33,6.5,34.9,4.6c.3-1.4-.3-2.5-.8-3.7-1.4-3.2-26.2-41.1-28.2-42.8s-3.1-2.6-5-2.5c.7,5.2-.5,13.9-7.4,13.8s-6.6-12.8-2.4-12.6,5.4,1.7,8.7-.2c1.3-2-3.6-5.9-5.5-6.7-2.3,1.7-4.7,3.6-4.5,6.8l-1.5-2c-2.6,3.1-5.4,5.1-8.9,1.9-8.5-7.6,8.3-20.2,7.4-3.9,3.4.5,4.2-5.3,6.7-5.9l4.3,1.9c.7-.8-4-5.9-1.5-8,4.4,5.5,5.4,14.6,13.5,16,.3-.3-1.3-7.5-1.7-8.8-1.9-5.7-7.5-9.4-1.2-14.6,4.7-3.9,8.1,2,8.9,6.4l3-4c-.7,3.7-1.2,7.9-3.5,11s-.9-2.4-4.5-1l1,6,2-1c.5,16.8,10.6,31.7,21,44l1.8-31.5c-.7-11.7-8.1-21-14.9-29.4l-1.8.9c-.4-2.4,1.5-3.6,3-5-.4,10,11.4,5.3,5.4,1.1s-3.6-1.2-5.4-1.1c2.1-2,3.3-3.8,6.9-2.9l3.2,8.2-3.1,2.2v1.8c2.6,2.2,3.9,4.7,5.7,7.4s-.2,1.9,2.2,1.3c-.5-3.9-1.3-7.8-1.9-11.6s1.6-5.3-1.7-8.3-3.9-.9-4.5-3c4.8-.9,8.8,1.2,10,6,12.3-6.9,9,4.1,9.5,12,4-3.3,3.7-8.6,3.4-13.4s-1.5-3.5-1.5-5.1c-.1-6.9,10.2-7.3,12.8-1.2s-1.2,4.1-1.3,6.2,5.7,4.4,0,11-7.7-2.6-14.1,4.2c-11.7,12.6-8.9,25.8-8.9,41.8s-1.1,5.3-.9,8.8c.4,7.9,5.5,14.8,10.4,20.7,10.3,12.3,24.8,24.6,37,35,.6.2,1.3-2.9,1.4-3.6.8-5.8-3.2-35.8-5.4-41.4s-11.7-17.4-13.1-18.9-10-6.3-8.4-8.1l6,4,2-9c-4.3-1-.2,5.5-3,6,2.2-6.9-6.9-10.1,0-15.6,5.1-4.1,6.5,2.1,11.1-.4-3,5.7-1.8,11.7,3,16,0-4.9,1.9-10.5,1-15.5s-2.7-3-3.5-4.5c-2.8-6,2.7-9.8,8.5-9-.4,4.4-3.7,4.3-7,3l2.5,6.1c1.2.2,4.3-1.4,5.2-2.3s2-6.7,4.3-3,3.9,9.3,7.5,2.3c-4.6-2.7-5.2-4.6-4.5-10,4.3-.7,4.2,8.4,5,9l5-2c-2,5,2.5,5.9,5,9-5.5,1.1-.6,7.6-7.3,10.3-3.3,1.3-4.1-.9-6.7-2.3,0,7.1-7.3,13.9-8,20.5s.6,18.9,1,24c.8,9,4,34.5,6.9,42.1s17.7,19.4,21.1,21.9,3.3,1.7,4.9,2.6v-6c.6-.7,6.5,13.1,7.6,14.9,6,9.9,15.5,20,22.2,29.8,20,28.7,37.4,57.9,48.2,91.3,1.7.3,1.1-2.4,1-3.5-.9-25.4-3.9-50.6-6.1-75.9s-1-22.5-2-34-2.1-21.8-4.3-26.7-13.6-14.4-16.7-17.3c-4.6-4.3-12.2-11.8-17.3-14.7-6.3-3.5-36-14.1-42-12.8s-.4,3-3.2,2-2.2-2.4-.5-3.5,5.6.7,6-1.5c-5.9-.8-11.1-3.1-16-6.5,3.5-2.9,5.1-7.5,10.3-6.3s1.8,1.7,6.7,1.8c-.1.6-1.1,1.4-1,2.5.3,3.6,10,10.2,14,10.5l-10.2-12.8c-.8-.6-1.9-.2-2.8-.2.4-1.6,1.1-3.4,1.5-5,10.5,10.5,17.7,25.1,34.5,26-.5-1.9-3.7-1.9-5.2-3-9-6.4-17.1-19.1-25.8-26.4l-5.9-1.5.5,4-3.5-4.5c5.7-6.3,11.9,4,17.5,6.4,4.4-4.1,6.1-10.2,7-15.9,3.6,5.3-4.5,14-3.1,19s13.7,15,16.1,17,1.6,2.4,3.5,2c-3.1-13.2-7.2-26.3-15-37.5l3-.5c.9,4.5,3.2,10.3,7,13,2.7-5.4-7.8-18.3-6.9-21.3s10.2-4,12.8,1-2.7,5.6-4.4,8.4,6.6,30.3,7.4,35.6l2.1,1.4,5.8-27.4-6.6-9.1,9.9-3.5c.6,3.9-5.5,1.8-7,4.5,1,3.5,4,5.1,6,1.5-2.1,4.7,4.5,3,5,.5s-4.1-2.5-5-.5ZM281.6,13.1c-1.9-2.7-8.2,1-5.5,4.9,2.4,3.4,7.3-2.4,5.5-4.9ZM166.7,18c8.5,2.2,11.6-4.8,1.6-5.1l-1.6,5.1ZM147.5,16.3c-1-.9-4.4-1.7-5.6-1.1-8.1,13.9,11,6,5.6,1.1ZM288.4,25.1c-4.1,1-3.1,8,.6,7.7,5.8-.5,4-8.9-.6-7.7ZM129.7,43c6.6.3,8.5-9,.9-7.4l-.9,7.4ZM234.6,35.2c-9.7-1.6-5.8,7.6,1.1,6.9l-1.1-6.9ZM173.7,73c-3.8-5.1-6.5-16.1-10-20.5s-12.6-7.7-16-12.5c.4,3.7-2.4,7.7-1.8,11.2s8,14.4,9.4,15.7,17.4,6.9,18.4,6.1ZM211.8,42.1c-1.8,1.3-.5,8.1,3.4,6.9s.9-9.9-3.4-6.9ZM121.3,52.1c-2.8.9-2.3,6.8,1.7,5.8s3.4-7.4-1.7-5.8ZM298.2,69.3l-3.3,4.1,4.4,5.7c4.8-2.3,3.8-10.1-1-9.7ZM498.7,98c2,1.8,14.5-12,14.6-14.9-.8-3.5-2-3.1-4.5-1.5-5.2,3.3-8.1,10.8-10.1,16.4ZM103.7,114l6.6-.9c2.4-3.4-3.1-8.3-6.6-7.1v8ZM91.7,134c2.9-6.9,8.7-18.8-4-17l2,6.6,4-.6-1,3.6-3-.6v7.5s2,.5,2,.5ZM110.5,117.2h-6.8c0-.1,1.1,5.8,1.1,5.8l6.5-.9-.7-4.9ZM62.4,124.3c-1-1.2-3.9-1.5-3.7-4.3-4.5,1.6-2.4,5.4.3,7.7s6.3,0,3.4-3.4ZM451.7,121c-2.6-2.4-4.7,8.6-1.5,10,1.9.7,2.4-4.9,2.4-5.6s-.6-4.1-.9-4.4ZM503.4,126.3c-3.3-3.3-11.5,6.2-10.8,6.8,3.3.8,14.9-2.7,10.8-6.8ZM34.6,139.9c.7-2.5-1.1-8-4.4-6.9-2.3,2-2.7,5.3-1.5,7.9l5.8-1ZM407.7,142c-4.3-.6-7,4.2-3.4,7l3.5-1.7v-5.3ZM141.6,145.1c-1.3-1.1-10.6,2-10.9,3.5,3.9,3.8,0,18.8,3.5,20.4l8.3-15.7-.9-8.2ZM151.7,155c2.6-9.8-6.7-15.4-4.9-1.6l4.9,1.6ZM45.7,146h-6s1.4,5.1,1.4,5.1l1.2.8,2.9-.8.5-5ZM118.5,157.9c6.2-9.2-2.8-13-4.9-2.5,1.8,1.1,2.4,3.6,4.9,2.5ZM123.7,159c-8.3,3.4-2.8,13,.2,18.3l7.8,9.7c.7-10.5-4.8-18.6-8-28ZM35.6,162.1l-6-.6-.9,6.6,5.8-1.2,1.2-4.7ZM407.7,171l-2-9c.1,2.6-.8,7.6,2,9ZM194.4,168.1c-4.2,1-3.9,8.9,2.7,6.8,3.5-1.2,1.2-7.7-2.7-6.8ZM9.3,178.1c-3,.5-4.6,8.6.9,8s2.7-8.6-.9-8ZM360.4,178.2c-1.2.3-3.7,3-3.7,4.4l3.5,3.5c4.4,0,5.1-9.2.2-7.9ZM39.7,188c-4.5,2.6-24-1.2-25.6.9l.7,6c5-2.9,9.2,4.1,11.4,4.1s16-8.7,13.5-11ZM464.7,193h-3.8c0,.1-1.1,6-1.1,6,3.8.7,5.1-2.9,5-6ZM25.7,202l-10-5,.4,8.1,4.6.9c-6.7,9.6,6.1,11.7,4.3,1.1s-2.9-1.2-2.3-4.1l3-1ZM161,202.7c-1.4-1.5-2.1-4.2-5-4.4s-6.2,3.2-3.3,5.3l5.5,2.5,1-2,5.5,3c.5-2.7-2.4-3-3.6-4.3ZM485.4,201.3c-3.8-3.8-8.6,1.9-5.8,5.3s9.7-1.4,5.8-5.3ZM375.7,216l6-3.5-2.5-3.5-3.5,7ZM294.6,213.2c-2.9-1.8-5,0-7.7,1-.9,10,9.2,7.7,7.7-1ZM73.6,234.9c.9-6.4-7.3-12.3-6.9-3.5s2.4,6,6.9,3.5ZM339.5,228.2c-9.6-4.5-9.5,7.9,0,3.7v-3.7ZM61.2,231.4c-4.9,0-5.8,8.2,0,8.3s4.8-8.3,0-8.3ZM346.7,232c-8.2,0-5.5,11.6.9,4.3l-.9-4.3ZM430.7,251c1-5.4-2.1-8.5-6.6-4,0,4,3.2,4.4,6.6,4ZM469.8,270.9c2.6,4.1,11.8-3.2,4.8-6.4s-6.3,4-4.8,6.4ZM57.8,266.2c-2.7,1.7-.4,9.5,3.9,7.4s1.1-10.5-3.9-7.4ZM82.4,276.8c2.1-2.1,1-6.1-1.3-7.7l-6.4,5.5c1.8,2.6,5,5,7.7,2.2ZM254.7,408c3.5-16.8,11.3-32.8,16.3-49.2,2.8-9.1,6.4-15.5,2.1-24.7-5.4-11.8-16.1-13.7-26.4-20.1.2,22.2,3.4,44.3,5,66.5.6,8.2,0,16.3,1.3,24.8s.4,3,1.7,2.7ZM305.8,324.9c4.7,3,8-6.4,2.4-7-5-.5-3.5,6.3-2.4,7ZM79.7,367c.4-7.8-2.7-17.3-9-22-3.7,2.8,2.4,22.4,9,22ZM436.7,353l-1-3.5c-1.8-2.1-5.3-.4-7,1.2v3.3s8-1,8-1ZM425.7,352c-.7-.7-8.2,5.7-9,6.5s-2.3,1.8-2,3.5c3.7,1.8,12.2-8.8,11-10ZM341.7,357c0,2.8-.8,7.9,2.7,8.9,7.4,2,6.5-11.3-2.7-8.9ZM69.7,382c.8-6.6-19.4-12.2-22-10-.4,2.1,1.1,2.3,2.3,3.2,2.4,1.9,17.8,8.5,19.7,6.8ZM137.4,405.7c3.9-4.3,6.7-21.1,1.8-25.7-4.2,2.5-5.8,25.9-4.5,27,.8-.3,2.3-.8,2.7-1.3ZM127.7,404c-1.6-5.7-5.4-14.2-11-17-3.2,2.6,8.4,15,11,17ZM405.7,407c16.4,1.9,2.7-12.4.2-4.3s-.2,2.9-.2,4.3ZM93.7,443c-1.9-7.5-10.4-12.7-18-12-.3,1.7,0,2.2,1,3.5s16.3,9.2,17,8.5ZM395.7,435c-1.5,4.4,7,6.8,8,3.5,1.3-4.2-5.5-4.7-8-3.5ZM190.6,436.1h-2.9s-5,25-5,25c10.2-4,10.4-15.9,7.9-25ZM175.7,462c-.2-3.2-7.6-19.6-10.5-19-3.1.7.5,6.2,1.3,7.7,2.1,3.9,5.7,8.7,9.2,11.3ZM87.7,453c-4-1.8-23.1-5.5-25-1.5-.5,1.9,1.3,1.7,2.6,2.3,5.5,2.7,18.1,4.4,22.4-.8ZM311.7,526c22.6-8.9,22.6-41.5,29-61-1.4-.3-2.5.2-3.7.8-9.8,4.1-34.9,22-37.8,32.2l-4,17,27-30c1-1.4,2.1-1.4,1.5.5-2.3,7.7-19.6,22.9-25.5,29.5-7.5,8.4-15,17.4-21.5,26.5,3.4,2.2,10.2,1,14.2.2,9.5-1.8,17.5-6.2,20.8-15.7-7.9,3.1-17.7,4.2-26,6,1.5-4.2,25.8-8.8,27-8,0,.8-.7,1.1-1,2ZM136.7,500c1.8-2-9.4-19.3-15-16-.4,2,.4,2.7,1.4,4s12.1,13.6,13.5,11.9ZM121.7,506c2.5-2.4-11.7-9.5-13.4-10-3.6-1-6-2.1-8.5,1.5,5.3,6.2,14.6,6.5,22,8.5ZM217.7,523c1.6-8.1-2.4-11.8-5.8-17.6s-2.1-8.8-7.1-9.3c-1.9,2.2,7.8,21.7,9.8,24.7s1.1,2.7,3.2,2.3ZM105.7,522c2.9,1.3,18-4,18-6.5,0-3.7-15.3,1.9-17.4,2.4l-.6,4.1ZM178.7,568c2.6-2.7-11.7-16.4-16-15-2.5,2.5,14.7,16.4,16,15ZM164.7,576c-1.9-4.9-26.5-8-28-6-3.1,4.1,17.6,7,19.5,7.1,3,0,5.6-1.1,8.5-1.1ZM177.7,588c-1.9-1.4-16.9,2.8-15,8,5.8.7,12.7-2.7,15-8Z"/>
  <path d="M337.7,86c.2-.3.2-1.7.9-2.5,2.7-3.1,5.4-.9,6.2,2.5l2.9-.4-10,21.5c1.7-1.6,5.6-3.1,6.9-4.5,3.5-3.9,2.1-11.4,9-12.5l-6,11,7.5-2c1.7,6.8-11.1,5.6-14.5,10l16.4,4.1c1.4-.3,2.5-9.8,8-8s2.6,3,2.6,3.4c0,2.4-5.2-.4-6,.9l-.9,4.6,5.5,1c.7,9.1-6.5-.4-11-1s-14.6-.4-18,.1-5.2,3.3-8.5,2.9c-3.4-6.1-2.2-12.6-3.1-19.3l5-1.7-3,15.5c3.7.8,7.9-7.5,8.6-10.5,1.3-6.3-2.8-9.5-2.4-11.4s2.9-2.6,3.8-3.6c-1.5,3.5,0,6.3,2.5,9,2.7-2.3,2.7-5.7,2.5-9h-5Z"/>
  <path d="M64.7,357c-7-4.3-16.7-10.6-20.4-18.1-8-16.4,3.1-16.4,11.8-4.8,4.9,6.4,7.1,15.1,8.6,22.9ZM59.7,348c-2.9-7.5-6.6-16.4-15-19,1,7.8,6.7,17.7,15,19Z"/>
  <path d="M381.7,367c-1.8.2-.9-2.2-.7-3.2.5-3.2,3.8-8.8,3.7-10.3s-4.3-5.5-5.2-7.8c-2.5-6.1,6.7-14.9,13.7-7.6,9.6,10.1-2.1,11.2-6.3,16.6s-4.1,8.8-5.2,12.3ZM386.4,338.2c-6.8.5-3,13.2,2.2,2.2.3-1.4-.9-2.3-2.2-2.2ZM393.4,347.7c.9-1,1.5-2.4.9-3.7-2.8-5.8-8.4,2.1-7.5,6,2.1.3,5.3-.7,6.7-2.3Z"/>
  <path d="M454.7,169l24.5-11.9c4.4.1,10,4.7,6.6,9.2s-8.9,4-9.9,4.1c-2.7.3-5.3-1.5-6.7-1.5h-14.5ZM471.7,166c2,.8,11.8,1.4,11-2.5s-4.7-3.5-7.5-1.5-2.8,2.6-3.5,4Z"/>
  <path d="M417.4,413.3c20.8-2.9,9.7,18.3-5.5,10.9-9.2-4.5-1.4-10,5.5-10.9ZM421.7,417h-8c-1.5,9.1,7.7,7.2,8,0Z"/>
  <path d="M245.7,50h-1c.9-1.9-1-4.6-1-5.5v-16c0-1.2-5.3-3.9-6.1-4.9-4.8-6.6,5.8-12.8,11.6-7.6s-3.5,11.7-3.5,12.5v21.5ZM243.3,16.2c-3.4,1.1-3.4,7.9.9,7.9s5.3-9.9-.9-7.9Z"/>
  <path d="M36.7,114c.5.4,5.2-6.3,9.9-2.4,5.5,4.6.5,13.5-4,12s-3.8-3.3-4.4-3.3c-1,0-3,2.6-7.8,1.5-13.5-3.1.9-20.9,6.3-7.8ZM32.2,111.3l-4.5,5.2,2,3,3.5.6c2.2-.3,3.2-2.4,3.3-4.4l-4.3-4.4ZM41.4,113.2c-3.8,1.1-3.1,5-.3,6.9,6.2,4.1,7.4-8.9.3-6.9Z"/>
  <path d="M436.4,387.8c-.5.5-7.3,4.1-8.1,4-2.5-.2-4.2-3.6-6.4-4.6l-8.3-1.2c7.3,1.7,5.7-2.6,9.6-5.9,9.4-7.8,18.2,2.3,13.1,7.6ZM424.7,386c16,5.1,6.7-11.1.9-3.6-.9,1.2-1.2,2.1-.9,3.6Z"/>
  <path d="M76.4,98.3c1.8,2,.1,5.9-1.4,7.8-5,.9-14.8,8.9-17.8,1.9s2.6-7.3,6.7-9.2,7.2-6.4,12.5-.4ZM73.4,104.8c4.7-4-6.9-11.2-6.8-3.3s4.4,5.3,6.8,3.3ZM58.8,102.2c-1,4,.4,7.2,4.9,5.4,1.4-1,1.3-5.1.5-6.6l-5.4,1.2Z"/>
  <path d="M418,331.3c5.6-6.8,16.7,1.4,12.2,8.7s-5.7,3.7-6.3,3.8c-5.4,1.4-9-8.8-5.9-12.5ZM426.4,338.8c2.4-2.4.5-6.8-3.2-6.9-8-.1-.7,11,3.2,6.9Z"/>
  <path d="M58.5,246.2l8.2,14.8c-4.7.8-6.8-2.8-7-7l-6.5,5.7c-11.4-5.8-5.9-15.3,5.4-13.6ZM53.4,248.1c-6,1.6-2.8,15.5,5.1,4.4-.8-2-2.4-5.1-5.1-4.4Z"/>
  <path d="M232.7,508l-1.5-9-10.5,20c0-4.2,1.5-8.7,2.7-12.8s5.4-18.3,9-11.5-.1,8.8.2,13.3Z"/>
  <path d="M168.7,172c-8.1-2.8-10.6,7-17.6,3-8.8-5,3.1-13.7,8.1-9.1s.9,7.1,8.4,4c-1.1-4.5-3.2-6.3-8-6,5.6-6.1,10.3,2.3,9,8ZM157.6,173c.9-1.3-1-7.4-3.4-6.9s-6,6.9.1,7.7,3.1-.6,3.3-.8Z"/>
  <path d="M170,336.7c1,1.1,2.8,1.8,4.2,3.3s2.7,5.8,5.5,6c2.8,3.7-6.7.3-7,0s1-1.9.8-3.3c-.5-3.3-16.7-15.2-20.4-18.7s-14-13.3-12.5-15c11.1,7.8,20.2,17.8,29.3,27.6Z"/>
  <path d="M445.4,288.2c7-1.1,9.9,10.8,3.6,12.7-8.7,2.6-11.9-11.4-3.6-12.7ZM444.3,292.2c-3,1-1.5,5,1.1,5.7,6.2,1.8,6-8-1.1-5.7Z"/>
  <path d="M322.5,210.2c2.1,10.3-7,13.1-12.8,5.1.4-7,7.3-9.6,12.8-5.1ZM316.4,209.2c-6.4,1.7-3.7,12.4,3.2,6.2l-.3-5.4c-.8-1.2-1.6-1.2-2.9-.8Z"/>
  <path d="M476.7,108c-6.6-7.3,4.4-20.2,8.2-10.6,1.7,4.2-5.7,12.4-8.2,10.6ZM479.3,96.1c-4.9,1.5-2.3,15,3.4,1.4l-3.4-1.4Z"/>
  <path d="M16.4,151.2c6.2-1.7,12.8,8.7,4.3,11.4-10.8,3.4-10.9-9.6-4.3-11.4ZM14.8,159.9l4.2,1c7.5-1.8-4.3-17.8-4.2-1Z"/>
  <path d="M484.4,217.3c2.7,4,.5,7.1-4.2,6.8-7.7-.4-1.4-10.9,4.2-6.8Z"/>
  <path d="M302.7,356c-4.4-.7-9.7-6.1-5.5-10,4.4-1.3,4.8,7.5,5.5,10Z"/>
  <path d="M279.7,89c-5.8-.5-3,3.8-3,6.4s-1.7.6-1.9,1.4c-.7,1.9-.4,5.6-2.1,6.2.5-3.5.2-12.2,1.5-15s5.8-2.7,5.5,1Z"/>
  <path d="M403.7,192c-1.9.4-2.4-1-3.5-2-1.8-1.5-11.5-10.9-9.5-13,1.9-.4,2.4.9,3.4,2.1,3.4,3.9,5.8,9.2,9.6,12.9Z"/>
  <path d="M330.7,132c-.6-2,.4-9.7,3.5-9,4.7,1,1.6,10.2-3.5,9Z"/>
  <path d="M360.5,533.3l.8,2.2c-.5,6.4-8.9,2.5-5.6-3.5l4.7,1.2Z"/>
  <path d="M169.7,221c-11.4,1.4-3.4-10-.5-4s.6,2.6.5,4Z"/>
  <path d="M357.7,89.1c2.5-3.6,10.5,2.2,3.7,4.9-1.8-.3-5-3-3.7-4.9Z"/>
  <path d="M371.7,76c2.1,0,4.6-.6,6,1.5l-2.5,4.5c-3-.3-3.9-3.5-3.5-6Z"/>
  <path d="M367.5,150.9c-4.2,2.6-6.5-5-3.3-5.9s5.5,4.5,3.3,5.9Z"/>
  <path d="M245.7,104l1,6h-5c-.4-2.8.7-6,4-6Z"/>
  <path d="M204.7,19l-7,1c-.4-6,6.1-6.3,7-1Z"/>
  <path d="M312.7,116l-5-1c-1-7.6,5.9-4.9,5,1Z"/>
  <path d="M357.7,152c-2.3-.8-5.1-6-2.5-8l2.5,8Z"/>
  <rect x="263.7" y="268" width="4" height="4"/>
  <polygon points="181.7 177 181 180 177.7 184 177.8 178.2 181.7 177"/>
  <path d="M331.7,79v4c-5.2.4-6.2-5.4,0-4Z"/>
  <polygon points="139.7 131 137.2 137 135.7 131 139.7 131"/>
  <polygon points="174.7 181 176.7 187 173.7 186.3 172.7 181.5 174.7 181"/>
  <polygon points="281.7 293 282.7 297 277.7 296 281.7 293"/>
  <path d="M331.7,266l-1-4c3-.2,4.4,2.7,1,4Z"/>
</svg>