<?xml version="1.0" encoding="UTF-8"?>
<svg id="_レイヤー_1" data-name="レイヤー_1" xmlns="http://www.w3.org/2000/svg" version="1.1" viewBox="0 0 350 700">
  <!-- Generator: Adobe Illustrator 29.0.1, SVG Export Plug-In . SVG Version: 2.1.0 Build 192)  -->
  <path d="M95.5,76c3.4-1.3,2.8-1.8,3-6,3.7,1.7,4.2,0,7-2l2,4,.5-5c2.4,1.7.4,3.7.9,6.1s3.6,3,3.6,5.5l3.1-.6-1,3,5,1c-.4-8.2-12.6-6.1-9-15,4.3-.7,4.3,2.7,4,6l3-6c3.8-.7,1,3,1,5,2.7,1,2.8-3.9,4.5-4s.5,3.4.7,3.7c.7,1.1,3.9.5-.2,5.2h2s0,1.5,0,1.5l-3,2.9,6,9.6.9-21.4c-.8-2.2-3.9-1.1-5.4-2.6s-.8-2.5-1.4-3.3c-1.4-1.8-6.4-3,0-4.7l5,8c-.6-3.2-3-8.7,2-9l3,6,3-6-2,6c1-.6,4.1-1.1,4,.5s-3.5,1.5-4.5,2.5c-3.3,3.3-.6,23.8-1.5,29.5l8.5,29.5c2.4-11.1,6.7-26.7,1.5-37.5s-3.8-3.6-4-6.4l3.6.9c.8-1.6,0-2.4,2.4-1.9v7.4c.1,0,3,16.6,3,16.6l8.8-20.7c0-2.9-6.7-5.3-5.8-8.8s4.8.1,5.8.3c2,.3,4.3-1.8,5.8,1.2s-2.4,4.7-3.3,6.7c-17.5,37-20.7,59.9-10,100.5,1,3.6,1.9,9.4,4.7,11.8.5-16.6,7.8-31.9,11.9-47.6s11.6-40.8,12.1-54-3.6-19.6-5.5-21.5-8.3-3.3-6.1-6.9,4.2,4.9,6,5c2.8.2-1.1-7.3-1.1-8.5.3-6.8,7-2,4.6,4.5,2.6-1,.4-5.3,5-4,.5.4-4.8,8.1-5,9.5-.3,3.4,2.6,9.8,3,13.5,1.7,1.4,1.8-.1,2-1.5.9-6.4.2-13.4.9-19.1s3.4-2,2.1-5.4c4.7-.8-.1,7.6,1,9l8-1c2.3,9.7-9.7,16.5-12.5,24s-8,35.5-9.2,44.8-1.1,3.4.7,3.2c5.9-11.9,17.6-20.8,25.4-31.1,14.3-18.8,18.6-46.4,28.3-67.7.3-5.3,1.3-11.9-2.3-16.2-1.5-1.8-3.8-1.6-4.4-4.6s4-1.4,4-5.5c2.5.8,2,3.8,2,6,3.2.7,1.8-2,2-4,2.2.7,3.7.8,5.5-1,2.7,1.7,0,4.3.5,7l3.5-5c3.4,1.7-3.1,5.5-1.5,7,3,2.9,3.8-6.3,7-4l-2,7c1.8-.2,5.3-5.4,6.5-5,3.4,1.4-.8,5.8-.5,6,3.7.6,2.9-3.8,5-5l-2,7h2.5c1.7-.5.2-6.1,3.5-5v5c3.2-2,6.4,1.9,4,5l3,.5c2,3.1-5,5.1-3,7.5,1.7,2,2.1-2,2.6-2,1,0,2.2,1.2,3.7.9s1.9-2.4,3.7-1.8l-2,4,6-.6c2.4,1.7-.5,6.1,0,6.6s3.8-1.2,3.8,3.7l-3.8.3v3s7.5-3,7.5-3c1.8,1.1,1.1,3.2,1.9,4.7s2.6-.1,1.7,2.3c0,.2-3.1-1.7-3,1.5l3,2.5c-4.4-1.4-10.5,4.4-13.7,4.8s-3.2-.9-4.7-.7c-7.7,1-14.7,1.1-22,2s-15.2,11.8-21.6,17.4c-10.1,8.9-21.1,14.9-28,27.5,1,.8,22.5-4.2,24.3-5.2s8.7-12.6,10.7-10.8l-7,11c3.6-.4,6.7,1.6,10.3.8s6.8-7.7,11.7-7.8l-6,7,7.5-2c.2,4.1-5.4,1.8-6.5,4,1.6,0,9.1,3.5,7,6s-6.5-6.3-9-5c1.2,2.5,4.7,3.6,4,7-2.7-1.4-3.3-6.1-7-6,1.2.1,6.5,8.9,2.5,7s-2.9-5.3-4.6-6.4c-6.9-4.5-22.1-.8-29.8,1.1-11.3,2.8-13.5,4-21.2,12.8-13.7,15.8-20.6,36.7-23.7,57.3s1.9,44,2.7,65.7c0,1.2-.8,3.7,1,3.5.3-2.9,1.1-5.8,2-8.5,6-18,24.1-79.5,35.5-89.5s1.1-1.3,2.5-1c.8,3.6-3.6,5.7-5,7.8-9.7,15-14,34.3-19,51.2,10.5-9.4,16.8-22.7,20.9-35.8-6.7-2.8-6-8.5,1.1-9.7l3,5.6c-.7-5.6,4.5-4.1,5.8-5.2s1.6-6.8,6.6-5.9c2,4.8,7.5,2.1,11.6,2.1l-2,4,4,2c-2.6.5-5.8,1.2-7,4,3.4,1.6,4.3-2,4.6-2,1.7,0,4.4,2.2,6.4,2.1l-5.4,5.1c-3.3.5-12.9.7-15.4,2.1s-4,5.3-5.7,6.8c-23.4,20.9-31.4,27.9-40.8,59.2-11.9,39.8-7.3,78.6-1.6,119.1,5.8,41.7,13.5,85.4,21.1,126.9,2.4,13.1,4.3,27.5,9.2,39.8,1.1-39.7,7.2-78.9,16.5-117.4l-36.2-88.8c-3.3-12.6-5.6-25.7-5.7-38.8,2.5-2.9,4.1,9.8,4.5,11,6.4,21.6,12.7,45.5,19.5,66.5,4.8,14.8,12.7,28.5,17.8,43.2l2.2,1.3c1.2-12.9,10.9-28.6,10-41.5s-8.8-34.6-11.5-48.5c-4-20.5-5-45-13-64s-3.8-6.9-6-6.9c-3.7,0-6.9,4.8-10.1-2.1l-6.4,1c-2.4-2.5,6.8-10.2,10-9l-1-6,2.5,2,.5-4c1.9-1.3,5.7,2.7,5.1,4.9h2.9c0,0-1-2.9-1-2.9l3.6.9.4-1.9,6.1,2.6c4.5,8.3-1.2,15.4,0,23.9l4,29.5,17-28-3-.5c1.8-3.3-2.1-7.9,2-8.9-2.7-3.9-5.5-3.6-9.8-3.6l-.7-4.9c3.1,0,7.8-3.5,8,0l2.5-2v3s3-1,3-1v6c2.3.3-.4-5.1,2.5-4s4.4,1.3,5,2.8c3.1-2,2.1.4,3.2,1.1,4.7,3,5.9,3,5.3,10l-12,1.6c-3.7,1.5-21.4,28.7-21.9,33-.8,6.4,4,26.9,5.5,34.4,2.3,11.6,5.2,25.2,8.5,36.5.4,1.5-.6,1.7,2,1.5,1.6-10.4,4.6-20.7,7.7-30.8,5.8-18.3,13.9-35.7,20.3-53.7,3.1-8.8,10.1-27.3,8.7-35.8-.7-4.1-6.7-18.5-9.7-21.3s-12-6-15.9-10l-11.1,3.5c-.6-4.4,8-3,9-4,.5-1.8-2.3-3.7-3.5-4-2.7-.7,0,3.2-3.4,3.5l-4-1.5.5-2,3.5-.5c-2.2-2.5-7.7-3.8-3.5-7.5l.5,3c2-1.4,2.6-2,5-1l-1-6h5c-2.9-4.3-1.2-3.1,0-5l1,4h1.5s1.5-1.5,1.5-1.5l-2.5-3.5-1.5,1c.4-.6.2-2.5,1.5-3l3.5,2-1-4c2-.8,4.3,1.7,5.5,1.6s1.9-2,3.8-1.6c3.5.8,3.3,8.5,6.7,9.9l1.1-4.3-4-5.6,3.5,2,3.5-5c-.4,3.5-.5,7.9-1.2,11.3s-2.3,3.8-2.7,6.3c-2.2,13.8,6,30.1,11.4,42.4,5.1-13.1,11.1-26.1,15.5-39.5,1.2-3.8,4-10.4,4-14,0-4.1-4.9-19.3-7.1-22.9s-10.3-3.8-14.9-6l-.7-1.3c1-2.6-.7-6.1.3-8.3s4-4.9,4.3-5c2.1-.6,7.2-.4,9.7-.6s2.3-1.2,3.6-1.2c3,.2,4.3,3.7,5.4-.1h6.9c0,0,1.7,2.3,1.7,2.3-4.6,2.5-1.7,5.3,2,1.5,0,2.9.5,6-.7,8.8s-6.6,5.7-7.1,7.9,1.9,9,1.8,11.8c0,5.3-3,12-3,17.5,3.4-2.6,15.7-14,13.6-18s-6-3.1-5.6-7.5l2.5-1.5,3.5,5c2-4.2-1-2.9-1.8-4.2s1.8-1.6-1.2-2.3l4-3.5-4,1,1-4,3,1,1.1-3.9c1.9-.6,5.5-.2,6.4,1.8v3c3-7.2,9.4-2.9,10.2,2.7.4,3-2.1,5.2-2.5,7.1s.9,3.1.8,3.2c-1.2,1.9-10.7.8-12,1.5s-7.6,10.4-9.5,12.6c-3.2,3.6-9.1,7.9-11.4,11.6-4.5,7.3-10,25-13.2,33.8-4.9,13.6-9.5,27.6-13,41.5,14.5-10.1,26.6-23.1,38.9-35.5s3.6-2.1,5.1-3.9c4.8-6,1.2-13.6,5.5-19.5l-.5,13,9-14.5-6,1.5,4-7.5c.2-4.1-4,1.7-5,.5-1.1-7.6,2.4-11.9,5.5-3,1.9-4.3,6-12.1,7.5-3l-3-1-4,9c4.8,1,4.5-4.9,6.5-7s5.5.7,4.5,2-5.9,2.5-6,5c4.2,1.3,3-2,6-2v4.4c-4.4.5-4.8,2.5-7.5,5.6l1.5-4.5c0-1-1.3-.5-2,0-2.9,2-7.1,13.3-10,16.5.6.5,6.1-1.8,6.9-2.5,2.7-2.1,3.9-9.4,7-4.5l-4,4c5.8,1.4,6.3-3.5,10-6.5.9-2.1-3.8-2-5-2.5,1.2-6.1,4.4-1.6,7,.7l-2,5.3c4.6-.3,4.6-6.5,7.5-9l-.5,8,5-1-3.1-8.5,2.6-2.5.5,4,5-2-5,4c-.3.3,1.5,2.2,2,2.5,1.5.8,3.4-2,3,.9-4.9,7.3-13.8,2.9-20,6-.3,2.5.7,1.2,2,1.1,4.6-.5,11.2-.1,14.4-2.6,1.3,1.3,1.9,1,.5,2.5-3.8,4.3-8.1.7-13,1.5-.3,1.4,8.6,1,6,4s-6.1-1.8-8.2-2.3c-5.5-1.4-15.9,0-20.7,2.9s-23,22.4-30.1,28.9c-7.8,7.3-18.3,13-23.2,22.8-9.8,19.5-20.4,53.4-25.1,74.9-.6,2.7-1.8,6.2-1.2,8.8,2.9-4.2,6.6-6.7,10-10,8.6-8.3,20.3-19.3,27.5-28.5,5.8-7.3,9.6-16.7,16-24,10.8-12.5,27.3-20.6,39.6-33.5,1-1.1,2.6-6,3.4-1.5-9,21.2-12.6,41.6-33.1,54.9-23.1,15-44.1,20.7-62.4,44.6-7.7,10-15,42.6-18,56-10.2,45.4-15.6,92.4-12.5,139l14.7-55.8c3.7-14.3,10.7-27.9,15.3-41.7,1.8-5.3,7.5-22.6,7.9-27.2s-2.6-12.1-4.6-16.3c-1.7-3.5-9.7-10.6-2.4-12.1-1.4,3.1,0,4.2,1,7,3,.3-2.2-8,1.5-5l6.5,20c.5-4.7,4.4-21.8,0-24.5s-9.2-1.4-9-6c.2-4.8,7.2,4.5,10,2.5-.3-2.9-2.4-6.1-3-8.5-1-4.1,3.1-2.7,4.5-.4l1.5,8c.5-4.9,3-9.8,6-13.5,2.2-2.7,4.8-6.2,8-2.9-.5,3.7-2.3,7.5-2.8,11.1s-.9,2.5.7,2.2c.5-4.1,8.9-7.1,9.9-10.7s-1.4-9.8-.6-14.5,4.8-11.4,8.8-9.3c6,6.7,5.1,12.4,0,19s-6.9,6-7.5,7.5,3.6,4.4.6,8.6-11.1.9-12,1.5c-1.7,6.1-7.8,11.9-10,17.5s-1.4,8.3-2.6,12.4c-2.5,8.6-5.7,17.1-7.5,26l24-21.8c5.9-8.2,1.1-19.3,12.5-24.3l2,4c6.8-8.3,10.4-17.5,20.8-22.2s7.9-3.8,9.2-.8-3.5,11.6-4.7,13.4c-1.9,3-14.4,14.2-17.8,17.2s-6.6,4.9-10,7c4,2.4,7.6-1.6,10.7-2.3,2.9-.6,13.5-1,12.2,4.1-4.7,8.2-13.1,1.1-19.4.7s-7.5.6-10.2,1.8c-4.4,2-21.1,17.9-24.8,22.2-14.7,17.2-19.3,44.9-26.5,66,3.6,1,2.8-1.6,4.5-3,17-14.3,38.4-27.9,59.3-35.8,10.6-4,21.4-6.1,31.9-11.1,3.2-1.5,7.4-5.2,9.8-6.2s2,.3,1.5,1.5c-1.5,3.6-20.4,14.9-24.8,17.2-26.4,13.8-60.4,16-80.2,40.8-22,27.6-9.3,108.8-12,145s.3,3.2-1.5,4.4c-1.8-1.2-1.4-2.6-1.5-4.4-3.2-42.6,2.5-88-4.1-130.9-3-19.2-23.9-63.2-35.1-79.9-18.7-28.1-49.9-20.2-72.8-41.2s-15.5-16-16-17,.3-2,1.5-1.5c3,1.3,10.7,9.1,15.2,11.8,20.2,12.3,44.9,20.2,63.8,35.2,1.4-.6,0-1.9-.3-2.7-4.7-10.5-14.9-28.1-22.2-36.8-22.8-26.7-69.3-33.2-99.2-48.8s-5.1-3.4-7.3-5.7h-1.4c-1.4,5.5-8.9,1.9-1-1.5-3.2-5.6-6.2-2.4-10-5l2-5.8c6.3-3.3,4,6.9,10,7.3l1-5.4c-4.3-1.5-1.6-8.4-7-8.6v3.5s3,2.5,3,2.5l-5.9-2.4,3.5-6.5,4.4,2.5,3.5-7.5c3.6,2.5.2,4.7-.2,6.7s1,2.5.6,3.2-4.5,1.4-2.9,3.1c3.5,3.8,9.1-6.8,10.5-9l1.6,2.9,3.9-.5,2.1,4.5c8.1.9,3.8-7.4,9.4-9,3.5,0,5.7,11.3,8.2,13.1s16.3,3.7,17.3,2.9c-.6-1.8-1.8-3.1-3-4.5-1.7-2.1-20.2-19.8-21.5-20.5-5.6-3.2-19.5,1.1-15.6-9.9l-4,1,1-4-4-1.5.6-2.5c2.4-1.9,5.4,2.8,7-1s-3.3-12.1,6-7c1.1,0,1.3-5.6,5-5s-.9,4.4-1,5.5c-.6,5,2.3,12.5,3.5,17.5,1.5,0,2-4.6,2-5.5s-5.9-10.1,0-7.1c2.4,1.2,2.5,8.2,1.7,10.7s-3.6,3.7-1.6,6.1l40.9,39.7-10.6-29.9c-4-3.5-11.7-6.2-13.2-11.8s-.5-3.1,1.3-2.3c2.7,1.1,8,9,11.5,10-.3-3.5-1.6-9.2-3.2-12.3-4-7.5-9.4-7.7-9.8-20.2s.6-5.4,3.4-4.3,9.2,15.1,9.4,18.6c.8,13,4.4,26.5,8.9,39,9.1,25.3,27.1,45.1,45.3,64.2-.9-4.6-2.3-9.3-3.7-13.8-4.2-13.2-11.4-38.5-17.1-49.9-3.3-6.5-10-10.2-13.6-16.4l-7.4-1.1-1.2-8.8,11-.6c3.2,3.9,2.4,7.2,1.4,11.6l8.6,9c-3-12-3.2-35-14.2-42.2s-6.4-2.6-9.3-4.8l-.9,2-3.6-1.5.2-3.4h2.9c-1.1-2.5-2-5.2.5-7.1,1.3-.6,3.9,4.3,4.1,4.9.4,1.5-2.1,2.4-1.6,3l7,2c-1.5-2.9-5.1-6.5-5.9-9.6s1.5-1.5,3-1.4c.2,1.3,1.5,5,2.4,6,1.5,1.7,3,3.4,5.6,3-1.2-4.2-3.2-8.6-8-9-.3-1.7-1.6-2.6.5-4,7.3,0,6.9,8.5,11.5,12,1.7-3.6-1-3.4-1.9-6.3.5-1.8,2.2-3.1,2.9-4.7-.6,0-1.3,0-2,0-1.9-2.7,5.5-7.6,2,0,.8,0,2.1-.4,2,.5l-2,6.5,2.6-3,4.3,1.5c-6.5,3.9-8.9,12.5-7.7,19.8,5.8,17.2,8.3,35.3,13.3,52.7,1.8,6.3,6.9,24.4,10,29s1.3,1.3,1.5,1c-1.2-18.2.1-39.7-5.3-57.2s-3-6-4-9-5.3-15.7.3-15.8c0,4-.7,9.7,3,12v-6.5c4.2-2.6,6.3,6.5,5.6,9.5s-2.7,3.8-2.7,7.4c-.1,6,3.4,17.8,4.1,25,1.9,19.5-.7,41.4,5,60s23.5,46,34.6,67.4l15.5,33c-8.1-48.9-17.6-97.7-24.8-146.7-2.6-17.4-3.1-37-6.3-53.7s-24.2-46.8-29.9-51.1c-4.9-3.6-11-6.4-16.4-10.6s-3.7-4.4-5.6-5.4c-4.2-2.3-26.1-4.4-33.1-5.9s-16.3-5.6-24.8-5.7c-1.3-3.4,4.2-.9,3-3.5s-8.4-.5-7-5.5l-4,4c-1.6-2.3,4.7-10.4,5-7.5-.4,2.8.2,5.4,3,6.5-1.8-7.3-1.8-11.5,6.4-6.9l2.4-3.6c-3.2-3-7.6-7.5-6.8-12.4,3.7.3,5.5-3.4,8.5,0,.9-1.5-.1-2.5,2.5-2-1.2,9.4,11.1,17.2,18.1,22.4,14.1,10.6,28.6,18,44.9,24.6-1.6-2.1-2.9-7.5-4.5-9s-7.1-1.3-10-3c-5.8-3.4-22.2-25.2-25.4-26.5s-5.6.4-8-2.6c-1.3,2.6,2,3.1,2,3.6.1,1.1-1.2,6.3-2,6.9l-7-2.5c-.5-2.3.6-2.4,2.5-2,2.9.6,1.5,2.8,3.5,3v-7s-7,1.5-7,1.5c-1.3-6.9-9.8-17.4,2-18.5l-.6,3h-4.4s1.5,3,1.5,3l7.5-6,3.1,10h2.9s-2-9-2-9l2,2,2-4c-.3,3.1-.9,6,.5,9s2.7,2.4,3.2,3.3c.9,1.4-.2,4.2,2.3,4.7,1.5-3.8.9-9.1-4-7,3.4-3.4,1-5.9,1-10l2,5,2-1c-.2,3.9.7,8.9,5,10,3.2-4.6-2.5-14.4,3-15,1,5.4,4.7,9.2,3.5,15l15.5,25c-3.9-12.8-8.5-32.3-16.5-42.9s-7.2-6.7-7.4-7.7.9-3.6,0-5.3h3s1,6,1,6l3.5-3,1.5,3c1.2-.8-1.1-5.8,1.5-5s-1.4,5.9,2.5,5l2-10-3,3,.2-4.8c5.9-2.7,10.6-2.6,12.6,4.5-1.7,2.7-2.6,4.2-3.8,7.3-3.8-1.8,4.8-7.3.5-9s-4.2,7.1-4.2,7.5c0,.6,1.5,1.6,1.6,2.9.2,2.6-1.9,7.3-.9,10.6,3.7-1.4.9-4.8,1.2-7.3s1.4-3.6,1.8-4.7l10.5-6c2.9,0,0,12.5-2.5,10l1-6c-3.8-.2-3.2,4.3-2.9,6.9l5-.6,3-9.3,4.5,1.9.5-2h2c-.3,2.7,1.8,1.8,3.8,2.1,2.4,1.5-.6,9.1-3.8,6.3l2-5.5c-5.6,2.7-2.1,8.5-1,13l5-7.4,2.5-1.6.6,1.8,2.9-.8-3,5,2.5,1.9,2.5-.9c.3,3.5-3.9,3.6-6,5.5s-3.5,3.5-5,5.1-.9,2.3-1,2.5c-3.7,3.3,0-6.3,2-6.5-1.7-2.8-4.8.4-5.8,2.2l-10.3,37.7c7.8,22.8,23.1,42.3,34.1,63.5l2-8.5c5.4-41.4,1.1-75.5-8.5-115.5-2.1-8.6-2.4-20.3-6.7-27.3-2.6-4.3-11.4-13.7-15.5-16.5-12.6-8.6-30.3-10.3-40.4-23.7l-10,1.5,5-3.5c-.1-3.6-5.6-3.3-5-6.5,4,1.7,5.3-2,5.6-2.1,2.8-.4,7.1,3.6,7.9,6.1s-2,2-1.1,4,6.5,5.6,8.3,6.8c9.4,6.7,20.3,9.4,30.3,15.2l-14.2-35.8c-2.6.4-6.2-1.4-8.3-1.2s-2.5,2.4-4.5,2c0-3.3,1.1-3.9,4-4.5l-5-1.5,1-4,2.9.9,2.6-3,5.1,3c1.6-1-2.9-5.4-4-6.1-1.9-1.2-5.1.1-7-3.9s1.9-5.5,1.5-6-1.4,1.2-2-2c-1,.4-1.8,1.2-3,1l.5-6c3.3.2,2.2,3.2,2.5,5ZM230.5,19c-1.7-2.1-4.6,4.8-1.5,6l1.5-6ZM235.5,27c-6.3-2.9-9.8,15.1-9,16,4.7.3,11.1-13.8,9-16ZM243.5,35l-.5-8c-2.2,1.9-2.5,6.8.5,8ZM255.5,35l-2-1.5-4,4.5,6-3ZM239.5,35c-3.6-.4-4.1,2.8-5.9,4.5s-4.7,4-7,6.1-2.5,1.5-2.1,3.4c7.6-2.8,16.7-3.5,15-14ZM243.5,36h-2s0,6,0,6c2.5-.8,2-3.8,2-6ZM258.5,39l-2.5-2-2.5,5,1.9-2.3,3.1-.7ZM243.5,65c-1.8-4,3.5-6.8,5.2-10.3,3.4-7.1,1.1-8.7-2.7-14.7-.6,2.4-3.7,2.6-4.3,4.7-1.4,4.6.9,13.5-2.2,18.8l2,1.5c-1.9.3-4.3,1.6-4,4,3,.9,4.5-3.3,5.2-3.8s1.8.7,2.8.3c4.6-1.9,9-4.4,13.8-5.7l2.2-10.3-11.5,6.5-6.5,9ZM256.3,43.3c-.9-.4-1.8-.4-2.8-.3l-2,10c2.7-1.7,4.4-4.9,8-5,.3-.3-3-4.6-3.2-4.7ZM239.5,45c-.6-.7-16,6.2-16.8,8.6l-17.1,44.4c18.3-12,36.2-29.1,34-53ZM267.5,49c5,.4,5-3.4,0-3v3ZM278.5,58c-.7-.7-7,2.3-6,3,2.7.2,6.2.5,6-3ZM269.5,61h-3.4c0,.1-1.6,2.5-1.6,2.5l2.5,1.5,2.5-2.5v-1.5ZM263.3,67.9c2.7-10.1-10.9-3.4-15.8-1.3s-5.2,1.8-6,3.5c7.3.3,14.8,0,21.9-2.1ZM277.5,63h-5v2h5v-2ZM184.8,74.3c.4-.6,2.5-1,2.7-1.8-4.8-8.3-5.7,10.9-7,14.5l10-13.5c-2.5-1.2-5.6,3.4-6,5.5-2.3,0-.3-3.9.3-4.7ZM105.8,74.7c-.4-.3-2.2-4.9-2.3-1.2,3.1,4.8,4.7,8.7,3,14.5l2.8.6c1,12.8,6.8,26.3,12,38s8.2,17.5,16.1,24.9,1.4,1.8,3,1.5c-2.7-18.3-4.6-42.7-13.3-59.2-1.2-2.3-6.7-9.4-8.8-10.3s-5.1,1.2-5.9.5-1.4-5.6-3-7.3-2.5-1.1-3.8-2ZM102.4,79l-3.9,2c3.1.3,2.4,5.6,7,5l-3-7ZM107.5,98c-1.1-2.2-4.9-5.6-7-2.5l7,2.5ZM270.6,155.1c4.8,1.4,2.3-4.1-1.7-1.2s-3,4.4-2.4,5.1l3,.5,1.1-4.4ZM266.5,154c-3-.2-2.2-.8-3,1.5s-2,7.5.5,8.5c5.2,2.1-.7-5.2.4-7.5l2.1-2.4ZM276.5,158h-3c-.4,2.4.5,4.2,3,4v-4ZM286.5,165l.6-5-2.5-1c0,2.2-.6,5.2,2,6ZM284.5,188c-.2-5.2.8-10.6-.9-15.5-1.1-3-4.5-8.6-8-6.4l9,22ZM313.4,165h-3c2.4,6.1-.7,2.8-2.1,4.6s-1.2,3.4.6,4.4l1-3.1h5.5c0,0-2-5.9-2-5.9ZM212.5,169l-3.1.6-.9,4.4,3.5-1,.5-4ZM221.5,170c-.8-.2-7.8,2.2-6,4,1.7-1.5,6.7-.8,6-4ZM308.5,177l4.5-1-.5-3-4,4ZM197.5,175c-1.6-1.6-4.6,1.4-3,3s4.6-1.4,3-3ZM218.5,176c-6.4-1-6.9,6.7-1.7,2.8s2.1-1,1.7-2.8ZM207.5,179c-2.8,0-7.1-1-7,3,2.2-1.4,6-.2,7-3ZM226.5,179l-6,.5c2.4,2.6,5.9,3.8,6-.5ZM207.5,183c-9.5-1.5-13.5,8.7-16,16,2.2-1.1,18.7-13.5,16-16ZM101.5,197c2.8-2.3.8-8.7,2-12-3.8,2.7-2.9,8.2-2,12ZM124.5,193l-1-7-2.8,7.5,5.8,7.5v-10s-2,2-2,2ZM112.3,194.8c.8-1.3,0-4.1.2-5.8-1.9,1.4-3.8,6.3-3.5,8,.5-1.1,3-1.7,3.3-2.2ZM100.5,196c-2.3-.4-2.4.5-2,2.5.7,3.1,4.2,6,4.5,9.5,4.2-1.7-4.1-9-2.5-12ZM114.5,197c-8.1.3-7.6,8.5-9,14.5l9,27.5v-42ZM116.5,199.5c-1.4,8.4,1,20.2,0,29l2,6.5c.4-9.4,9.5-26.3,5.2-34.7s-3-3.9-6.1-3.2c0,.9-1,1.9-1.1,2.4ZM239.5,198l-2,.5c.6,4.3-.1,6.6,4.5,8.5l1.6-5.4c-.3-.9-4.5-.5-4.1-3.6ZM249.5,209c.6-.6-.3-10.5-3-11-2.7,3.9-1.1,6.8-2,11h5ZM233.3,202.3c-.4-.2-5.7-.3-5.8,1.2,0,2.3,6.3-1,6.5,3.5l1.5-2-.5,5-4-3,.5,4c-2.5-2-3.6-3.7-7-1.5,2.3,2.8,6.6,2.3,9,3.1s4.3,5,8.1,0-1.4-3.9-3.5-5.6-4.4-4.6-4.7-4.7ZM67.5,207c-1.4-.2-6.6,1.6-6,3.5,1.2,3.7,1.4.7,2.1.3,1.6-.9,4.3-1.5,3.9-3.8ZM64.5,215c1.6.3,5.7,1.6,5-1.5s-5.7-1.9-5,1.5ZM251.5,225c-.8-2.6-1.4-8.4-3.5-10.1s-4.8-1.6-5-1.5c-1.1.1-3,3.5-5.5,2.7-.5,2.4.4,1.6,1.3,2.2,1.5,1,11.9,7.6,12.7,6.8ZM62.5,228c0-2.8-7.9-6.4-9-10.5l2-1-3-2.5c.3,2.2-.1,2.8-2,3.5,2.9,4.7,7.2,8,12,10.5.3,3.1-12.9,9.5-11,12,14.4,4.2,29,7.7,44,9l-30.1-20.5c-.8-.8-2.4-.3-2.9-.5ZM104.5,240l-14.1-21.4-4.8-3.6-1.6,5c6.4,7.2,12.8,14.2,20.5,20ZM107.5,238c-.5-3.8-11.6-23.6-14.5-23s-.5,2.8,0,3.9c3.4,6.4,9.5,13.7,14.4,19.1ZM58.5,228l-4-2,1,5,3-3ZM52.5,234c-.9-2.2-2.1-4.2-4.3-5.3l-3.2,1.3c.8,4.7,3.4,4.4,7.6,4ZM200.5,241c-1.8-1.7-1.7.7-2.1,1.4-1.9,3.6-3.4,7.9.6,10.6,3.1-1.5,3.1-10.5,1.5-12ZM195.5,251l-4-8c-1.5,4.2.6,5.8,4,8ZM186.5,250c.8-4.2-3.4-5.5-6-2.5-.4,2.8,2.4,1.1,3.6.6l2.4,1.9ZM179.5,247c-.6-.6-5.9,2.5-5,3,2.5.3,5.3,0,5-3ZM228.5,259l3.5-2c2.4-3.6-6.1-4.2-3.5,2ZM235.5,259l3-2.5-4-2.5,1,5ZM123.5,265c1.5-1.3-11.3-10.6-14-10,.7,2.4,13.1,10.8,14,10ZM201.5,269c-.5-2.6-.6-5.6-1.3-8.2s-.3-3-1.7-2.8c0,3.5-.5,8.8,3,11ZM270.5,329c18.4-12.3,38.9-18.4,44-43-15.2,13.8-35.3,23.1-44,43ZM74.5,313c.7-.9-3.9-13.5-7-14,.1,5.7,1.5,11.6,7,14ZM42.5,321c-2.4-4.7-1.9-11.3-8-13-2.3,2.1,3.8,9.4,5.4,11.1s0,2.5,2.6,1.9ZM256.5,347l33.9-18.6c5.9-4.7,12-10.8,14.1-18.4-16.4,12.6-35.5,19.2-48,37ZM40.5,325c-.2-1.6-7.3-11.8-9-10l2.4,8,6.5,1.9ZM181.5,343l-5.2-16.2-3.7-7.7c1.5,8.1,3.6,17.6,9,24ZM125.5,321c-3.1-2.8-.8,5.5-1,6,2.9-.4,1.6-5.4,1-6ZM91.5,329c-.1,2.1-.4,3.8,1.5,5l1.5-2.5-3-2.5ZM98.5,329h-2c-.2,1.8,0,2.9,1.5,4h1.5s-1-4-1-4ZM47.5,341c-5.6.3-.4,6.8-.9,10h5s-4-10-4-10ZM34.5,345c-1.4-1.2-6.2,2.8-5,4l7,1-4-3.5,2-1.5ZM117.5,407c.7-.7-4.2-6.4-5-7.5-6.6-8.1-31.9-40-39.3-42.7s-18.4-2.8-21.2-2.9c-8.7,0-23.6,7.2-24.5-5.9-7.1.9-3.3,8.5-4.1,9.8s-2.8.9-2.9,1.7,7.2,6.4,8.7,7.3c16.6,9.9,43.3,16.5,62,25,9.2,4.2,18.4,8.7,26.3,15.2ZM38.5,352l-7,.5c1.3,1.8,7.9,3.1,7-.5ZM270.4,388c2.3-1.5,0-11.8-3.4-11-3.1.7-4.1,13.2-3.5,16,2-.5,2.4-4.6,4-5.6s2.8.6,2.9.5ZM241.5,423c4.6-8.4,10.1-15.6,9-26-7,5.8-10.4,16.6-11,25.5l2,.5ZM296.5,403c-8.1,1.5-13.5,7.7-18,14l14.5-8,3.5-6ZM261.5,405c-.6-.6-6.6,2.6-5,4,2.5.4,5.1-1.3,5-4ZM294.5,411c-.7-.6-8.6,4.9-9.7,5.8s-2.7,1.1-2.3,3.2c5.3.3,9.9-4.5,12-9ZM283.5,421c-2.9,1.1-4.8.5-7.5-.7l-1,.6-9.5,16.1c1.5,1.5,15.1-11.1,16.5-13s1.9-1.3,1.5-3ZM267.5,424c-1.8-.6-4.9,4.4-5.2,5.2-.8,1.9-.9,3.7-.7,5.7,3.3-2.5,5.3-7,6-11ZM116.5,441l-30-14c6.3,7.4,17.6,12.3,26.9,14.5s3.3,1.3,3-.5ZM277.5,442c3-.4,6.7,2.7,9-.5-2.6-3.1-6.9-3.3-9,.5ZM296.5,488l-31,10.5-15,8.5c16-4,32.5-9.4,46-19Z"/>
  <path d="M83.1,177.4c.4.2.2,1.6.8,1.6,2.4,0,4.5-5.8,7.5-1.5.2.5-5,1.8-6,3.2-3,3.9,1.8,2.8,1,4.8-4.8,3.1-2,7.1-3,11.5,4.1.6,1.8-4.2,4-5l1,7-11-1c-.5-3.5,5.8-2.3,1.5-6-5.6,4.8-11.9-1.3-17.2-1.8s-6.7,2.6-9.3-.7l4-1.5-1-4c4.1-1.8,5-.6,8,2-2.6-5.9,3.2-14.3,5-5,5.5-4,7.1-7.3,14.6-3.6ZM79.5,177c-4.9-.1-.8,9,2,10,3.2-6.2-1.9-5.4-2-10ZM67.7,183.8c-.8-1.2.1-3.7-1.8-4.7-2,1.4-1.5,2.3-1.3,4.2.5,4.5,2.7.5,5.7,3.7.7-2.5-2.1-2.3-2.7-3.3ZM75.5,179c-1.4-1.5-5.8,4.7-2.5,6s1.3-4.2,2.5-6ZM79.5,190l-3-6c-1.1,2.5-.4,6,3,6Z"/>
  <path d="M108.5,124l-.5,2-9.9-1.9c-2.5-1.7,1-7.8,5.8-6l1.1.9c.6,2.5.3,4.9,3.5,5ZM103.5,123c1.9-1.8-4-4.5-4-1.5s3.3,2.1,4,1.5Z"/>
  <path d="M26.5,321c1.5,2.1-6.1,5.6-7,2.5-.3-4.9,3.8-3.5,7-2.5Z"/>
  <path d="M88.5,210c-3.7.7-1-2.3-1.5-4.1s-3.7-3.3-3.5-5.9c4.8.6,5.4,6.2,5,10Z"/>
  <path d="M251,184l2.5,2.5-2.5,3.5c-2.3-1.6-2.1-4.4,0-6Z"/>
</svg>