<?xml version="1.0" encoding="UTF-8"?>
<svg id="_レイヤー_1" data-name="レイヤー_1" xmlns="http://www.w3.org/2000/svg" version="1.1" viewBox="0 0 700 600">
  <!-- Generator: Adobe Illustrator 29.0.1, SVG Export Plug-In . SVG Version: 2.1.0 Build 192)  -->
  <defs>
    <style>
      .st0 {
        fill: #827c75;
      }
    </style>
  </defs>
  <g>
    <path class="st0" d="M39.6,520.3c3.9-16,8.7-29.1,12.9-39.3-6.3,3.3-12.4,6.6-18.5,9.9-4.2,2.5-2.7,4.5-4.9,4.4-19.4-1.5-4.4-7.6.9-10.7,8-4.8,17.3-9.7,27.4-14.9,2-4.4,3.6-8,4.6-10.7l3.2-8.8c13.6-30,28.2-59.3,47.8-85.8,18.3-25.3,39.6-48.2,65.2-66,15.3-10.5,36.6-22.8,52.3-20.2,10,1.5,15.4,5.4,17.2,16,1.5,25.4-16.4,101.3-17.8,107.7l-.7,3.5c18-4.5,35.6-8,51.9-10.4,9.3-1.4,11.5,3.9,10.3,9.7-1.3,6.8-2.4,15.2-4.4,24.3,2.5-4,4.9-8.1,7.2-12,5.4-9.7,10.7-19.2,16-28.9,2-3.6,6.5-4.6,9.7-1.8,6.2,5.4,8,8.1,12.4,11.8,4,3.3,9.6,3.9,16.3,2.9,8.3-1.4,17-3.1,26.2-8.2.3,0,.8-.3,1.3-.4.2,0,.4.1.5,0,.2.3,0,.5,0,.7-1.4,1.8-3.1,3.1-5.1,4.1-4.7,2.7-16.4,7.7-22.7,8.7-7.8,1.3-16.8-.9-25.1-6-2.7-1.7-5.2-3.6-7.7-5.5-1.6-1.4-3.4.8-4.5,2.7-1.6,2.3-10.7,18.2-14.6,24.8-3.2,5.3-9.9,18.1-13,22.5-1,1.2-1.5,2.1-2.9,2.4-2.1.4-8-2.2-8.5-5.1-.7-3.7,3.4-21.6,6.2-36.4.8-4,0-5.5-4.1-4.8-15.6,2.9-31.2,6.4-46.5,10.4-6.1,30.6-8.1,41.7-11.7,57.7-4.8,21.2-10.3,29-9.1,22.3,4.3-23.9,9-51.3,13.3-77.9-54.3,15-106.1,36.6-152.4,60.1-10.4,25.4-19.3,52-19.7,65.3-.7,2.6,1.4,6.8-1.9,7.2-15.1,2.6-7.9-17.7-7-25.4ZM221.6,407.4c9.1-55.7,16.4-107,14.6-115.5-1.2-5.8-3.7-10.2-9.6-9.3-14.3,3.3-26.3,11.2-38.1,19.1-47.5,33.4-85,91.4-106.2,139.4l-4.1,8c-1.9,4.4-3.9,8.8-5.7,13.5,42.7-20.4,97.4-41.4,149-55.1Z"/>
    <path class="st0" d="M422.3,416.6c8.9-26.3,21.1-48.6,22.9-65.4.2-1.7-.4-2.4-1.9-2.2-18.5,3.4-47,22.7-54,37.6-1.7,3.7-1.4,8-1.1,11.1.5,7.4,0,14.4-3.1,21.4-2.6,5.7-6.4,8.7-10.5,9.5-1,.2-1.9.4-3,.2-2.7-.2-5.5-1.5-7.9-3.6-1.5-1.6-2.5-3.7-3-6.2-.3-1.5-.2-3-.1-4.3.5-9.3,9.6-28.3,18.3-29.9,1.3-.2,2.5-.1,3.8.5,9.3-19.8,49.4-38.9,59.7-40.8,1.8-.3,3.3-.3,4.7,0,4.3.6,6.3,3,7,6.9,1.9,10.4-2.3,21.4-9,38.9,13.5-18.9,22.2-32.7,33.7-43.8,1.3-1.2,3-1.9,4.8-2.2,4.2-.8,9.1,1,9.9,4.6,1.7,4.6-6,27.6-4.8,34.2.2,1.3.7,2,1.8,1.8,5.7-1,12.2-8.3,18.2-13.4,3.7-3.4,9.3-9.6,11.9-10.1,1.6-.3,3.1.3,5.4,1,4.8,1.5,6.1,6.6,7.4,13.9l1,5.5c.6,3.4,2.8,6.4,8.2,5.5,13-2.4,30-20.9,39.2-31.2,1.1-1.2,2.3-2.8,3.6-4.2.3-.2.4-.4.8-.3.5.2.1.6.1.8-.5,2.1-1.5,4-2.5,5.7-2.3,3.9-5.5,7.5-8.7,10.8-8.3,7.7-18.4,18.6-32,21.1-13,2.4-18.5-4-20.1-12.6-.6-3.4-.7-5.4-1-7-.3-1.5-.8-2.7-2-2.5-.5,0-.9.3-1.7,1-7.2,6.5-13.8,13.6-22.5,19.9-1.8,1.2-3.7,2-5.4,2.3-2.1.4-4.1.3-6.1-.2-4.6-.5-6.8-3.1-7.5-7-1.3-7.1,2.5-18.2,4.1-26.9.8-4.7.6-7-4.2-1.7-9.4,10.6-17,22.2-24.3,32.8-5.2,7.2-14.9,27.4-17.3,29.2-1.1,1.2-2.8,1.9-4.5,2.2-4.4.8-9.2-.8-8.6-2.9ZM382.8,394.2c-7.6,7.1-12.2,16.8-12.5,24.1-.1,1.2,0,7.7,3.2,7.1,7.3-1.3,11.9-19.4,9.3-31.2Z"/>
    <path class="st0" d="M576.8,386.9c-2.9-1.1-3.8-4.2-4.3-6.8-.6-3.2,0-6.5.7-9.7,1.6-5.8,4.3-11.4,7.9-16.2,5.9-7.8,16.8-17.9,27.1-19.6,4.5-.8,9.8-.6,13.3,1.1-1-2.7.3-3.6,2.1-3.9,2.1-.2,4.2.2,6.2,1,1.3.6,2,1.6,2.4,2.9,1.8,7.2,6.9,17.7,11.4,22.6,3.2,3.8,7.5,5,12.6,4,9.7-1.8,19.9-10.4,26-17,1.1-1.2,2.3-2.8,3.6-4.2.3-.2.4-.4.8-.3.5.2.1.6.1.8-.5,2.1-1.5,4-2.5,5.7-4,6.6-16,16.7-25.9,18.5-7.3,1.3-14.1,0-21.4-4.3-5.4-3.2-10.2-11.9-13.7-18.8-9.3,17-15.8,26.4-24.1,36.6-2.1,2.4-4.5,4.5-7.1,6.3-1.9,1.4-3.8,2.2-5.7,2.6-3.1.6-6.4,0-9.6-1.4ZM607.2,359.6c4.6-5.9,7-11,11.2-17.6-1.6-1.4-3.5-2.4-6.3-1.7-9.5,2.1-22.7,18.8-27,32.1-1.3,4.1-1.4,7.6-1.2,9.1.3,1.5,1.8.8,2.9.1,8.9-5.7,15.3-15.4,20.4-22Z"/>
  </g>
  <g>
    <path class="st0" d="M154.2,12.6c0,.3,0,.4-.2.4-1.9,0-3.3.6-4.2,1.7-.9,1.1-1.4,2.9-1.4,5.4v36.7c0,.1-.1.2-.4.3-.2,0-.4,0-.5,0l-32.6-39.1-.2-.3v30.5c0,2.4.4,4.2,1.3,5.3.9,1.1,2.3,1.7,4.1,1.7s.2.1.2.4,0,.4-.2.4c-1.1,0-2,0-2.7,0h-3.6c0,0-3.7,0-3.7,0-.7,0-1.7,0-3,0s-.1-.1-.1-.4,0-.4.1-.4c2,0,3.5-.6,4.4-1.7s1.4-2.9,1.4-5.3V15.8c-1.9-1.9-3.9-2.8-5.8-2.8s-.2-.1-.2-.4,0-.4.2-.4h2.6c.6.1,1.4.1,2.4.1h3.3c.4-.1.9-.1,1.5-.1s.6,0,.8.2c.2.2.4.5.8,1.1.6.8,1.1,1.6,1.7,2.3l26.5,32.1v-27.8c0-2.4-.4-4.2-1.3-5.4-.8-1.1-2.2-1.7-4.1-1.7s-.1-.1-.1-.4,0-.4.1-.4h2.7c1.5.2,2.7.2,3.6.2s2.1,0,3.6-.1h2.9c.1,0,.2,0,.2.4Z"/>
    <path class="st0" d="M158.8,55.5c0-.3,0-.4.2-.4,1.7,0,2.9-.3,3.4-.9.6-.6.8-1.9.8-3.9v-13c0-1.6-.2-2.8-.5-3.6-.3-.7-.9-1.1-1.8-1.1s-1.8.3-3.1,1h0c-.2,0-.3-.1-.4-.4,0-.2,0-.4.1-.5l9.3-4.3h.3c.1,0,.3,0,.5.1.2.1.2.3.2.4,0,.3,0,1.3,0,2.8,0,1.5,0,3.4,0,5.5v13.1c0,1.4.1,2.4.3,3,.2.7.6,1.1,1.2,1.4.6.3,1.5.4,2.7.4s.2.1.2.4,0,.4-.2.4c-1.2,0-2.1,0-2.7,0h-3.8c0,0-3.9,0-3.9,0-.7,0-1.5,0-2.6,0s-.2-.1-.2-.4ZM162.6,19.4c-.6-.6-.9-1.4-.9-2.4s.3-1.7.9-2.2c.6-.6,1.4-.8,2.4-.8s1.8.3,2.3.8.8,1.3.8,2.2-.3,1.8-.8,2.4c-.6.6-1.3.8-2.3.8s-1.8-.3-2.4-.8Z"/>
    <path class="st0" d="M183,54.8c-2.1-1.3-3.6-3-4.6-5.1-1-2.1-1.5-4.3-1.5-6.7s.8-5.6,2.3-7.8c1.5-2.2,3.5-3.9,5.9-5.1,2.4-1.2,4.8-1.8,7.4-1.8s4,.4,5.7,1.3c1.7.8,2.6,1.9,2.6,3.1s-.2,1.3-.7,1.8c-.5.5-1.1.7-1.9.7-1.5,0-2.6-.8-3.4-2.5-.5-1-1.1-1.8-1.8-2.2-.7-.5-1.6-.7-2.9-.7-2.5,0-4.5,1-5.9,3-1.4,2-2.1,4.7-2.1,8.1s1,7.1,2.9,9.6c1.9,2.5,4.8,3.7,8.8,3.7s5-.7,7-2.2h.1c.1,0,.3,0,.4.2.1.1.1.3,0,.3-1.6,1.5-3.3,2.6-4.9,3.3-1.7.7-3.5,1-5.6,1-3,0-5.6-.7-7.6-2Z"/>
    <path class="st0" d="M228.8,51.9c.1,0,.3,0,.4.2.1.2.1.3,0,.5-3.1,2.8-6.6,4.2-10.4,4.2s-5.1-.6-7.1-1.9c-2-1.2-3.5-2.9-4.5-5-1-2.1-1.5-4.3-1.5-6.7s.7-5.3,2-7.6c1.3-2.3,3.1-4.1,5.4-5.4,2.3-1.3,4.8-2,7.6-2s4.8.7,6.2,2.1c1.4,1.4,2.1,3.3,2.1,5.9s-.3,1.9-.8,1.9h-17.3c0,1.1-.1,1.9-.1,2.4,0,4.1,1,7.3,2.9,9.8,1.9,2.5,4.6,3.7,8.1,3.7s2.6-.2,3.5-.5c1-.3,2.1-.9,3.4-1.7h0ZM213.6,31.7c-1.3,1.3-2.1,3.2-2.4,5.6l12.7-.3c0-2.4-.5-4.2-1.4-5.4-1-1.2-2.3-1.9-4-1.9s-3.6.7-4.8,2Z"/>
    <path class="st0" d="M297.8,55.5c0,.3,0,.4-.3.4-.9,0-2.3,0-4.1-.1-1.9,0-3.2-.1-4.1-.1s-2.4,0-4,.1c-1.5,0-2.7.1-3.5.1s-.3-.1-.3-.4,0-.4.3-.4c1.7,0,2.9-.2,3.6-.5.7-.3,1.1-.9,1.1-1.6s-.3-1.8-1-3.1l-6-12.6h-16.7l-4.1,9.6c-.6,1.4-.9,2.7-.9,3.9,0,2.9,2.3,4.4,6.8,4.4s.4.1.4.4-.1.4-.4.4c-.8,0-2.1,0-3.6-.1-1.8,0-3.3-.1-4.6-.1s-2.6,0-4.3.1c-1.4,0-2.6.1-3.6.1s-.3-.1-.3-.4.1-.4.3-.4c1.3,0,2.4-.2,3.3-.7.9-.5,1.8-1.4,2.6-2.6.8-1.3,1.8-3.1,2.8-5.5l14.8-34.6c0-.1.3-.2.6-.2s.4,0,.5.2l16.7,34.7c1.6,3.4,2.9,5.7,4.1,6.9,1.1,1.2,2.4,1.8,3.8,1.8s.3.1.3.4ZM263.3,35.8h15.4l-8.1-16.9-7.3,16.9Z"/>
    <path class="st0" d="M320.1,29.2c1,.6,1.4,1.3,1.4,2.2s-.2,1.2-.7,1.6c-.4.4-1,.7-1.8.7s-.9,0-1.2-.3c-.3-.2-.7-.5-1.1-.8-.5-.4-.9-.7-1.2-.8-.3-.2-.8-.3-1.3-.3s-1.2.2-1.9.7c-.6.5-1.6,1.5-3,3.1v15.1c0,1.4.2,2.4.5,3,.3.7,1,1.1,1.9,1.4.9.3,2.4.4,4.3.4s.2.1.2.4,0,.4-.2.4c-1.5,0-2.8,0-3.7,0h-5.2c0,0-3.8,0-3.8,0-.7,0-1.5,0-2.7,0s-.2-.1-.2-.4,0-.4.2-.4c1.2,0,2.1-.1,2.7-.4.6-.3,1-.7,1.2-1.4.2-.7.3-1.7.3-3v-13.7c0-1.5-.2-2.7-.6-3.4-.4-.7-1-1-1.8-1s-1.9.3-3.7,1h0c-.2,0-.3-.1-.4-.3,0-.2,0-.4.1-.5l8.4-4.1h.4c.5,0,.9.5,1.4,1.5.4,1.1.7,2.4.7,4.1,1.9-2.2,3.4-3.7,4.5-4.5,1.1-.8,2.2-1.2,3.2-1.2s2,.3,3,.9Z"/>
    <path class="st0" d="M332.3,54.8c-2.1-1.3-3.7-3.1-4.8-5.4-1.1-2.3-1.7-4.7-1.7-7.4s.7-5.6,2.2-7.7c1.5-2.1,3.4-3.7,5.7-4.8,2.3-1,4.7-1.6,7.1-1.6s5.2.7,7.2,2c2.1,1.4,3.7,3.1,4.8,5.4,1.1,2.2,1.7,4.6,1.7,7s-.7,5.4-2,7.6c-1.4,2.2-3.2,3.9-5.5,5-2.3,1.2-4.8,1.8-7.5,1.8s-5.2-.7-7.2-2ZM347.2,52.8c1.3-1.8,2-4.6,2-8.3s-.5-5.6-1.4-7.8c-.9-2.3-2.2-4.1-3.8-5.3-1.6-1.3-3.5-1.9-5.5-1.9s-4.2.9-5.5,2.7c-1.3,1.8-2,4.4-2,7.8s.5,5.5,1.4,7.9c.9,2.4,2.2,4.3,3.7,5.7,1.6,1.4,3.4,2.1,5.5,2.1s4.3-.9,5.6-2.7Z"/>
    <path class="st0" d="M409.4,55.5c0,.3,0,.4-.3.4-1.1,0-1.9,0-2.6,0h-3.9c0,0-3.8,0-3.8,0-.7,0-1.6,0-2.7,0s-.1-.1-.1-.4,0-.4.1-.4c1.8,0,2.9-.3,3.5-.9.6-.6.8-1.9.8-3.9v-10.9c0-2.8-.5-4.8-1.4-6.1-1-1.3-2.4-2-4.4-2s-2.7.4-4.1,1.1c-1.4.7-2.6,1.8-3.7,3v14.8c0,2,.3,3.3.8,3.9.6.6,1.7.9,3.5.9s.1.1.1.4,0,.4-.1.4c-1.2,0-2.1,0-2.7,0h-3.9c0,0-3.8,0-3.8,0-.7,0-1.5,0-2.7,0s-.2-.1-.2-.4,0-.4.2-.4c1.7,0,2.9-.3,3.4-.9.6-.6.8-1.9.8-3.9v-10.9c0-2.8-.5-4.8-1.4-6.1-1-1.3-2.4-2-4.4-2s-2.7.4-4,1.1c-1.3.7-2.6,1.7-3.7,2.9v15c0,1.4.1,2.4.3,3,.2.7.6,1.1,1.2,1.4.6.3,1.5.4,2.7.4s.2.1.2.4,0,.4-.2.4c-1.2,0-2.1,0-2.7,0h-3.8c0,0-3.8,0-3.8,0-.7,0-1.5,0-2.7,0s-.2-.1-.2-.4,0-.4.2-.4c1.2,0,2.1-.1,2.7-.4.6-.3,1-.7,1.2-1.4.2-.7.3-1.7.3-3v-13.7c0-1.5-.2-2.7-.6-3.4-.4-.7-1-1-1.8-1s-1.9.3-3.7,1h0c-.2,0-.3-.1-.4-.3,0-.2,0-.4.1-.5l8.4-4.1h.4c.5,0,.9.5,1.4,1.5.4,1.1.7,2.4.7,4.2,3.2-3.9,6.7-5.9,10.3-5.9s3.8.5,5.1,1.6c1.3,1,2.1,2.6,2.5,4.6,1.7-2.1,3.5-3.7,5.2-4.7,1.7-1,3.5-1.5,5.4-1.5s4.4.7,5.7,2.2c1.3,1.4,2,3.6,2,6.4v13.5c0,1.4.1,2.4.3,3,.2.7.6,1.1,1.2,1.4.6.3,1.5.4,2.7.4s.3.1.3.4Z"/>
    <path class="st0" d="M439.7,52.1c.2,0,.3.1.3.3,0,.2,0,.4-.2.5l-7.2,3.4c-.2,0-.4.1-.6.1-.6,0-1.2-.4-1.6-1.2-.5-.8-.8-1.9-1-3.3l-3.5,2.3c-1.1.8-2.1,1.4-3,1.7s-1.9.5-2.9.5c-1.8,0-3.1-.5-4.1-1.4-1-.9-1.5-2.1-1.5-3.5s.6-2.7,1.8-3.7c1.2-1,3.1-2,5.7-3l7.5-2.7v-4.6c0-2.8-.4-4.8-1.1-6.1-.7-1.3-1.8-1.9-3.2-1.9s-2.7.5-3.5,1.6c-.8,1.1-1.3,2.3-1.5,3.6-.3,2.1-1.2,3.1-2.9,3.1s-1.5-.2-1.9-.6-.6-.9-.6-1.5c0-1.2.7-2.3,2.2-3.5,1.5-1.2,3.2-2.1,5.3-2.9,2.1-.7,3.9-1.1,5.5-1.1s3.4.6,4.4,1.9c1,1.2,1.6,3,1.6,5.4v12.9c0,1.6.2,2.8.7,3.5.4.7,1.1,1.1,2.1,1.1s1.9-.3,3.2-.8h.1ZM429.3,50.9v-7.8l-5.9,2.4c-1.3.5-2.2,1-2.9,1.7-.7.7-1,1.5-1,2.6s.4,2,1.1,2.8c.7.7,1.6,1.1,2.8,1.1s2-.4,3.2-1l2.7-1.7Z"/>
    <path class="st0" d="M468.2,24.8c.9,1.4,2,2.5,3.2,3.4,1.3.9,3,2.1,5.3,3.4,2.4,1.4,4.2,2.7,5.6,3.7,1.4,1,2.5,2.3,3.5,3.8,1,1.5,1.4,3.4,1.4,5.5s-.6,4.3-1.7,6.2c-1.1,1.8-2.8,3.3-5,4.3-2.2,1-4.8,1.6-7.8,1.6s-7.1-.8-10.1-2.5c-.2-.1-.4-.3-.5-.5,0-.2-.2-.5-.2-.8l-.8-9.8c0-.2,0-.3.3-.4.3,0,.4,0,.5.2.9,3.5,2.4,6.4,4.4,8.9,2,2.5,4.7,3.7,8,3.7s4.2-.6,5.7-1.8c1.5-1.2,2.3-3.2,2.3-5.9s-.5-3.9-1.4-5.4c-.9-1.5-2.1-2.8-3.4-3.8-1.3-1.1-3.1-2.3-5.4-3.6-2.3-1.4-4.1-2.6-5.3-3.6-1.3-1-2.3-2.2-3.2-3.6-.9-1.5-1.3-3.2-1.3-5.2s.6-4.4,1.9-6.1c1.3-1.7,2.9-2.9,5-3.7,2.1-.8,4.2-1.2,6.5-1.2s5.7.5,8.3,1.6c.7.3,1,.7,1,1.3l.4,8.4c0,.2-.1.3-.4.4-.3,0-.4,0-.5-.2-.5-2.5-1.5-4.8-3.2-7-1.6-2.2-4-3.3-7.1-3.3s-4.4.7-5.6,2.2c-1.3,1.4-1.9,3.3-1.9,5.5s.4,3.3,1.3,4.7Z"/>
    <path class="st0" d="M524.9,55.5c0,.3,0,.4-.2.4-1.2,0-2.1,0-2.7,0h-3.8c0,0-3.9,0-3.9,0-.7,0-1.5,0-2.6,0s-.2-.1-.2-.4,0-.4.2-.4c1.7,0,2.9-.3,3.4-.9.6-.6.8-1.9.8-3.9v-10.9c0-2.8-.5-4.8-1.5-6.1-1-1.3-2.6-2-4.8-2s-2.8.4-4.2,1.1c-1.4.7-2.7,1.7-3.9,3v14.9c0,2,.3,3.3.8,3.9.6.6,1.7.9,3.5.9s.2.1.2.4,0,.4-.2.4c-1.2,0-2.1,0-2.7,0h-3.8c0,0-3.9,0-3.9,0-.7,0-1.5,0-2.6,0s-.2-.1-.2-.4,0-.4.2-.4c1.7,0,2.9-.3,3.4-.9.6-.6.8-1.9.8-3.9V14.2c0-1.7-.2-2.9-.5-3.6-.3-.7-.9-1.1-1.7-1.1s-1.7.3-3.1,1h0c-.2,0-.3-.1-.5-.4-.1-.2,0-.4.1-.5l9.2-4.4h.2c.2,0,.3,0,.5.2.1.1.2.3.2.4v28.3c3.4-4,7-6,10.8-6s4.5.7,6,2.2c1.4,1.5,2.1,3.6,2.1,6.4v13.5c0,2,.3,3.3.8,3.9.6.6,1.7.9,3.5.9s.2.1.2.4Z"/>
    <path class="st0" d="M535,54.8c-2.1-1.3-3.7-3.1-4.8-5.4-1.1-2.3-1.7-4.7-1.7-7.4s.7-5.6,2.2-7.7c1.5-2.1,3.4-3.7,5.7-4.8,2.3-1,4.7-1.6,7.1-1.6s5.2.7,7.2,2c2.1,1.4,3.7,3.1,4.8,5.4,1.1,2.2,1.7,4.6,1.7,7s-.7,5.4-2,7.6c-1.4,2.2-3.2,3.9-5.5,5-2.3,1.2-4.8,1.8-7.5,1.8s-5.2-.7-7.2-2ZM550,52.8c1.3-1.8,2-4.6,2-8.3s-.5-5.6-1.4-7.8c-.9-2.3-2.2-4.1-3.8-5.3-1.6-1.3-3.5-1.9-5.5-1.9s-4.2.9-5.5,2.7c-1.3,1.8-2,4.4-2,7.8s.5,5.5,1.4,7.9c.9,2.4,2.2,4.3,3.7,5.7,1.6,1.4,3.4,2.1,5.5,2.1s4.3-.9,5.6-2.7Z"/>
    <path class="st0" d="M587.5,29.5c1.7,1,3,2.5,4,4.5,1,2,1.5,4.2,1.5,6.9s-.8,6.5-2.3,8.9c-1.6,2.4-3.5,4.2-5.8,5.3-2.3,1.1-4.6,1.7-6.9,1.7s-2.7-.1-3.8-.4c-1.1-.2-2.2-.7-3.4-1.3v14.3c0,1.4.2,2.4.5,3.1.3.7,1,1.1,2,1.4,1,.3,2.4.4,4.4.4s.1.1.1.4,0,.4-.1.4c-1.7,0-3,0-3.9,0h-5.2c0,0-3.8,0-3.8,0-.7,0-1.5,0-2.7,0s-.2-.1-.2-.4,0-.4.2-.4c1.3,0,2.2-.1,2.8-.4.6-.3,1-.7,1.2-1.4.2-.7.3-1.7.3-3.1v-32.8c0-1.6-.2-2.8-.5-3.5-.3-.7-1-1.1-1.9-1.1s-2.1.4-3.6,1.1h0c-.2,0-.3-.1-.5-.4-.1-.2,0-.4.1-.4l8.2-3.9c.2,0,.3-.1.5-.1.6,0,1.1.5,1.5,1.4.4,1,.7,2.3.7,4.1,2-2,3.9-3.5,5.8-4.4,1.9-.9,3.8-1.4,5.8-1.4s3.7.5,5.4,1.5ZM585.7,52.1c1.5-2.1,2.3-5.2,2.3-9s-.9-6.9-2.6-9c-1.7-2.1-3.9-3.2-6.5-3.2s-3,.4-4.3,1.1c-1.3.7-2.6,1.8-3.9,3.1v15.9c1.2,1.4,2.5,2.5,4,3.3,1.4.7,3.2,1.1,5.2,1.1s4.4-1.1,5.9-3.2Z"/>
  </g>
</svg>